<?xml version="1.0" encoding="UTF-8" standalone="no"?>
<!-- Generator: Adobe Illustrator 18.1.1, SVG Export Plug-In . SVG Version: 6.00 Build 0)  -->

<svg
   xmlns:dc="http://purl.org/dc/elements/1.1/"
   xmlns:cc="http://creativecommons.org/ns#"
   xmlns:rdf="http://www.w3.org/1999/02/22-rdf-syntax-ns#"
   xmlns:svg="http://www.w3.org/2000/svg"
   xmlns="http://www.w3.org/2000/svg"
   xmlns:sodipodi="http://sodipodi.sourceforge.net/DTD/sodipodi-0.dtd"
   xmlns:inkscape="http://www.inkscape.org/namespaces/inkscape"
   version="1.1"
   id="Tank"
   x="0px"
   y="0px"
   viewBox="0 0 1417.3 1417.3"
   enable-background="new 0 0 1417.3 1417.3"
   xml:space="preserve"
   sodipodi:docname="grey_tank.svg"
   inkscape:version="0.92.3 (2405546, 2018-03-11)"><metadata
   id="metadata117"><rdf:RDF><cc:Work
       rdf:about=""><dc:format>image/svg+xml</dc:format><dc:type
         rdf:resource="http://purl.org/dc/dcmitype/StillImage" /></cc:Work></rdf:RDF></metadata><defs
   id="defs115" /><sodipodi:namedview
   pagecolor="#ffffff"
   bordercolor="#666666"
   borderopacity="1"
   objecttolerance="10"
   gridtolerance="10"
   guidetolerance="10"
   inkscape:pageopacity="0"
   inkscape:pageshadow="2"
   inkscape:window-width="1600"
   inkscape:window-height="837"
   id="namedview113"
   showgrid="false"
   inkscape:zoom="0.47097211"
   inkscape:cx="624.17482"
   inkscape:cy="753.16067"
   inkscape:window-x="-8"
   inkscape:window-y="-8"
   inkscape:window-maximized="1"
   inkscape:current-layer="Tank" />
<g
   id="g10"
   transform="matrix(-1,0,0,1,1437.2,0)"
   inkscape:label="barrel">
	<polygon
   points="724.1,545.1 724.1,491.1 308.3,468.3 306.7,552.4 "
   id="polygon2"
   style="fill:#6d6e71" />
	<polygon
   points="724.1,511.4 724.1,491.1 308.3,468.3 307.8,494 "
   id="polygon4"
   style="fill:#808285" />
	<polygon
   points="334,573.4 336.3,448.4 209.8,441.2 207.2,576.4 "
   id="polygon6"
   style="fill:#58595b" />
	<polygon
   points="336.3,448.4 209.8,441.2 209.1,477.1 335.6,483.8 "
   id="polygon8"
   style="fill:#6d6e71" />
</g>
<g
   id="g96"
   transform="matrix(-1,0,0,1,1437.2,0)"
   inkscape:label="body"
   inkscape:export-filename="D:\Godot\releases\nightly-builds\projects\tankz\player\tank\body.png"
   inkscape:export-xdpi="20"
   inkscape:export-ydpi="20">
	<g
   id="g24">
		<rect
   x="512"
   y="588.79999"
   width="445.60001"
   height="55.700001"
   id="rect12"
   style="fill:#414042" />
		<polygon
   points="1130,698.6 1039,630.1 414.5,630.1 373.3,681.7 349.3,913.5 1161,913.5 "
   id="polygon14"
   style="fill:#a7a9ac" />
		<polygon
   points="414.5,630.1 1039,630.1 1130,698.6 373.3,681.7 "
   id="polygon16"
   style="fill:#808285" />
		<path
   stroke-miterlimit="10"
   d="m 479.6,630.3 c -0.5,0.6 -20.3,38.1 -26.3,53.1 -2,74 -3.2,150.5 -6.1,224.5"
   id="path18"
   inkscape:connector-curvature="0"
   style="fill:none;stroke:#58595b;stroke-width:1.15390003;stroke-miterlimit:10" />
		<path
   stroke-miterlimit="10"
   d="m 731.3,630.1 c -3.8,18.8 -7.8,38.8 -11.8,57.8 1,73 2,147 3.5,220.2"
   id="path20"
   inkscape:connector-curvature="0"
   style="fill:none;stroke:#58595b;stroke-width:1.15390003;stroke-miterlimit:10" />
		<line
   stroke-miterlimit="10"
   x1="452.10001"
   y1="727.70001"
   x2="719.90002"
   y2="736.29999"
   id="line22"
   style="fill:none;stroke:#58595b;stroke-width:1.15390003;stroke-miterlimit:10" />
	</g>
	<g
   id="g50">
		<g
   id="g48">
			<g
   id="g32">
				<g
   id="g28">
					<polygon
   points="976.2,597.8 1008.4,564.5 1008.4,419 967.3,369.8 521.2,369.8 439.7,537 499.1,597.8 "
   id="polygon26"
   style="fill:#a7a9ac" />
				</g>
				<polygon
   points="521.2,369.8 1008.4,419 967.3,369.8 "
   id="polygon30"
   style="fill:#bcbec0" />
			</g>
			<polygon
   points="499.1,597.8 976.2,597.8 1008.4,564.5 439.7,537 "
   id="polygon34"
   style="fill:#808285" />
			<polyline
   stroke-miterlimit="10"
   points="596.1,369.8 555.2,542.5 562.1,597.8    "
   id="polyline36"
   style="fill:none;stroke:#58595b;stroke-miterlimit:10" />
			<polyline
   stroke-miterlimit="10"
   points="879.2,369.8 895,559 887.1,597.8    "
   id="polyline38"
   style="fill:none;stroke:#58595b;stroke-miterlimit:10" />
			<line
   stroke-miterlimit="10"
   x1="563.09998"
   y1="509.20001"
   x2="892"
   y2="523.29999"
   id="line40"
   style="fill:none;stroke:#58595b;stroke-miterlimit:10" />
			<g
   id="g46">
				<ellipse
   cx="730.09998"
   cy="453.60001"
   rx="43"
   ry="42.599998"
   id="ellipse42"
   style="fill:#6d6e71" />
				<polygon
   points="685.9,425.6 679,443.7 722,460.2 729.2,505.7 748.3,502.7 741.1,457.1 776.9,428.1 764.7,413.1 728.9,442.1 "
   id="polygon44"
   style="fill:#e6e7e8" />
			</g>
		</g>
	</g>
	<g
   id="g80">
		<polygon
   points="1039,630.1 932.8,630.1 932.8,913.5 1161,913.5 1130,698.6 "
   id="polygon52"
   style="fill:#58595b" />
		<polygon
   points="1130,698.6 1039,630.1 894,630.1 932.8,694.2 "
   id="polygon54"
   style="fill:#6d6e71" />
		<g
   id="g66">
			<g
   id="g58">
				<polygon
   points="977.7,642.6 888.7,639 862.3,655.8 854.2,651.5 868,631.3 877.7,617.1 990.5,621.7 998.6,626 993.9,661.2 985.8,656.9 "
   id="polygon56"
   style="fill:#808285" />
			</g>
			<g
   id="g64">
				<polygon
   points="985.8,647 896.8,643.3 887.6,656.8 862.3,655.8 876.1,635.7 885.8,621.4 998.6,626 1011.1,648 1019.2,662.2 993.9,661.2 "
   id="polygon60"
   style="fill:#999999" />
				<polygon
   points="998.6,626 880.7,628.9 885.8,621.4 "
   id="polygon62"
   style="fill:#bcbec0" />
			</g>
		</g>
		<g
   id="g78">
			<g
   id="g70">
				<polygon
   points="978.4,671.1 889.4,668.9 863.2,686.2 855.1,682 868.5,661.6 878,647.2 990.8,650 999,654.2 994.9,689.4 986.8,685.2 "
   id="polygon68"
   style="fill:#939598" />
			</g>
			<g
   id="g76">
				<polygon
   points="986.6,675.3 897.5,673.1 888.5,686.8 863.2,686.2 876.6,665.8 886.1,651.4 999,654.2 1011.8,675.9 1020.2,690 994.9,689.4 "
   id="polygon72"
   style="fill:#bcbec0" />
				<polygon
   points="999,654.2 881.2,658.9 886.1,651.4 "
   id="polygon74"
   style="fill:#d1d3d4" />
			</g>
		</g>
	</g>
	<g
   id="g94">
		<polygon
   points="1132,616.6 1160.9,579.1 1120.8,557.9 1106.1,602.9 "
   id="polygon82"
   style="fill:#58595b" />
		<polygon
   points="1019,763.1 1068.6,630.9 1129.9,663.4 1048.5,778.7 "
   id="polygon84"
   style="fill:#58595b" />
		<polygon
   points="1097.5,593.4 1068.6,630.9 1129.9,663.4 1144.6,618.4 "
   id="polygon86"
   style="fill:#808285" />
		<polygon
   points="1115.3,655.7 1077,738.4 1129.9,663.4 "
   id="polygon88"
   style="fill:#808285" />
		<polygon
   points="1147.5,572 1126.7,608.9 1134.7,613.1 1160.9,579.1 "
   id="polygon90"
   style="fill:#808285" />
		<polygon
   points="1131.1,611.2 1115.3,655.7 1129.9,663.4 1144.6,618.4 "
   id="polygon92"
   style="fill:#a7a9ac" />
	</g>
</g>
<g
   id="g110"
   transform="matrix(-1,0,0,1,1437.2,0)"
   inkscape:label="track"
   inkscape:export-filename="D:\Godot\releases\nightly-builds\projects\tankz\player\tank\track.png"
   inkscape:export-xdpi="20"
   inkscape:export-ydpi="20">
	<path
   stroke-miterlimit="10"
   d="m 395.3,1033.3 c -64.9,0 -117.8,-52.8 -117.8,-117.8 0,-65 52.8,-117.8 117.8,-117.8 h 682.8 c 64.9,0 117.8,52.8 117.8,117.8 0,65 -52.8,117.8 -117.8,117.8 z"
   id="path98"
   inkscape:connector-curvature="0"
   style="display:inline;fill:none;stroke:#6d6e71;stroke-width:40;stroke-miterlimit:10" />
	
		<path
   stroke-miterlimit="10"
   d="m 395.3,1047.5 c -72.7,0 -131.9,-59.2 -131.9,-131.9 0,-72.7 59.2,-131.9 131.9,-131.9 h 682.8 c 72.7,0 131.9,59.2 131.9,131.9 0,72.7 -59.2,131.9 -131.9,131.9 z"
   id="path100"
   inkscape:connector-curvature="0"
   style="display:inline;fill:none;stroke:#6d6e71;stroke-width:40;stroke-linecap:square;stroke-miterlimit:10;stroke-dasharray:75.7495" />
	<path
   d="M 1078.2,812 H 395.3 c -57.2,0 -103.6,46.4 -103.6,103.6 0,57.2 46.4,103.6 103.6,103.6 h 682.8 c 57.2,0 103.6,-46.4 103.6,-103.6 0,-57.2 -46.3,-103.6 -103.5,-103.6 z"
   id="path102"
   inkscape:connector-curvature="0"
   style="fill:#a7a9ac" />
	<path
   stroke-miterlimit="10"
   d="M 1078.2,812 H 395.3 c -57.2,0 -103.6,46.4 -103.6,103.6 0,57.2 46.4,103.6 103.6,103.6 h 682.8 c 57.2,0 103.6,-46.4 103.6,-103.6 0,-57.2 -46.3,-103.6 -103.5,-103.6 z"
   id="path104"
   inkscape:connector-curvature="0"
   style="fill:none;stroke:#414042;stroke-width:25;stroke-miterlimit:10" />
	<circle
   cx="396.5"
   cy="915.59998"
   r="34.700001"
   id="circle106"
   style="fill:#414042" />
	<circle
   cx="1077"
   cy="915.59998"
   r="34.700001"
   id="circle108"
   style="fill:#414042" />
</g>
</svg>