<?xml version="1.0" encoding="utf-8"?>
<!-- Generator: Adobe Illustrator 18.1.1, SVG Export Plug-In . SVG Version: 6.00 Build 0)  -->
<svg version="1.1" id="Warstwa_1" xmlns="http://www.w3.org/2000/svg" xmlns:xlink="http://www.w3.org/1999/xlink" x="0px" y="0px"
	 viewBox="0 0 295.6 418.7" enable-background="new 0 0 295.6 418.7" xml:space="preserve">
<g>
	<g>
		<g id="balloon">
			<g>
				<path fill="#8CC541" d="M109.5,6.7c3.2-2,7.8-3.3,11.7-4.1C58.7,14.8,0,97.2,0,162.3c0,86.9,89.8,150.2,111.6,164.3
					C-60,123.2,109.5,6.7,109.5,6.7z"/>
				<path fill="#8CC541" d="M123.3,327.2l15.4-0.1C77.5,123.4,138.8,1.6,138.8,1.6c1.2-0.6,2.4-1.1,3.6-1.4
					c-5.8,0.2-11.5,0.8-17.3,1.7c2.2-0.3,3.7-0.5,3.7-0.5C13.7,88.5,114.2,310.3,123.3,327.2z"/>
				<path fill="#8CC541" d="M160.3,327.1l15.4-0.1c9.7-17.4,113.1-236.7-1.7-323.7c0,0,0-0.2,1.1-0.1c-6.1-1.3-12.3-2.2-18.4-2.7
					c0.1,0.1,0.3,0.1,0.3,0.1C206.8,89.4,162.9,315.5,160.3,327.1z"/>
				<path fill="#8CC541" d="M188,325.6c22.5-16.4,106-82.5,107.6-163.3c1.2-58.3-48.2-135.8-103.9-154.5
					C211.3,19.5,346.6,136.9,188,325.6z"/>
				<path fill="#EDE37F" d="M123.3,327.2c-9-16.9-109.5-238.7,5.6-325.9c0,0-1.5,0.1-3.7,0.5c-1.3,0.2-2.6,0.5-3.9,0.7
					c-3.9,0.8-8.5,2.1-11.7,4.1c0,0-169.5,116.6,2.1,319.9c0.4,0.3,0.7,0.5,1.1,0.7L123.3,327.2z"/>
				<path fill="#EDE37F" d="M174,3.3c114.9,87,11.4,306.3,1.7,323.7l10.2,0l-0.1,0.3c0.7-0.5,1.4-1,2.3-1.6
					c158.6-188.7,23.3-306.2,3.7-317.8C186.2,6,180.6,4.4,175,3.2C173.9,3.1,174,3.3,174,3.3z"/>
				<path fill="#EDE37F" d="M138.7,327.2l21.6-0.1c2.6-11.6,46.5-237.6-3.4-326.5c0,0-0.1-0.1-0.3-0.1c-3.4-0.3-6.8-0.4-10.1-0.4
					c-1.4,0-2.7,0.1-4.1,0.1c-1.2,0.4-2.4,0.8-3.6,1.4C138.8,1.6,77.5,123.4,138.7,327.2z"/>
			</g>
			<g>
				<polygon fill="#563516" points="181.8,336.3 172.4,369.5 173.1,369.5 182.5,336.3 				"/>
				<polygon fill="#563516" points="116.4,336.3 115.7,336.3 125.9,370.1 126.6,370.1 				"/>
				<rect x="148.7" y="328.2" fill="#563516" width="0.6" height="41.6"/>
			</g>
			<polygon fill="#74A841" points="182.6,336.3 115.7,336.3 108.4,324.6 189.4,324.6 			"/>
			<g>
				<path fill="#E7E7E7" d="M182.4,331.4V330h3.9l-0.8,1.4H182.4z M177.2,331.4h-5.1V330h5.1V331.4L177.2,331.4z M167,331.4h-5.1
					V330h5.1V331.4L167,331.4z M156.7,331.4h-5.1V330h5.1V331.4L156.7,331.4z M146.4,331.4h-5.1V330h5.1V331.4L146.4,331.4z
					 M136.1,331.4H131V330h5.1V331.4L136.1,331.4z M125.9,331.4h-5.1V330h5.1V331.4L125.9,331.4z M115.6,331.4h-3l-0.8-1.4h3.8
					V331.4L115.6,331.4z"/>
			</g>
		</g>
		<g id="basket_1_">
			<g>
				<path fill="#754D29" d="M123.8,368.2v42.2c0,4.6,3.8,8.3,8.3,8.3h34.3c4.6,0,8.3-3.7,8.3-8.3v-42.2H123.8z"/>
				<g>
					<path fill="#603A17" d="M163.2,368.2v42.2c0,4.6-3.8,8.3-8.3,8.3h11.6c4.6,0,8.3-3.7,8.3-8.3v-42.2H163.2z"/>
				</g>
			</g>
			<g>
				<g>
					<path fill="#C3996B" d="M151.7,374.9L151.7,374.9c-2.7-2.5-3.3-7.4-3.3-7.4c0.3,3.4-3.1,7.2-3.1,7.2h0
						c-1.1,0.9-1.8,2.2-1.8,3.8c0,2.7,2.2,4.9,4.9,4.9c2.7,0,4.9-2.2,4.9-4.9C153.3,377.1,152.6,375.8,151.7,374.9z"/>
					<path fill="#C3996B" d="M127.7,374.9L127.7,374.9c-2.7-2.5-3.3-7.4-3.3-7.4c0.3,3.4-3.1,7.2-3.1,7.2h0
						c-1.1,0.9-1.8,2.2-1.8,3.8c0,2.7,2.2,4.9,4.9,4.9c2.7,0,4.9-2.2,4.9-4.9C129.4,377.1,128.7,375.8,127.7,374.9z"/>
					<path fill="#C3996B" d="M176.3,374.9L176.3,374.9c-2.7-2.5-3.3-7.4-3.3-7.4c0.3,3.4-3.1,7.2-3.1,7.2h0
						c-1.1,0.9-1.8,2.2-1.8,3.8c0,2.7,2.2,4.9,4.9,4.9c2.7,0,4.9-2.2,4.9-4.9C177.9,377.1,177.3,375.8,176.3,374.9z"/>
				</g>
				<path fill="#F6F3DC" d="M173.3,365.8c-1.4,3.3-4.5,5.6-8.7,6.4c-5.6,1-11.7-1-15.6-5.1l-0.3,0.3l-0.2-0.3
					c-13,9.8-19.9,4.6-24-0.3l-0.6,0.5c3.5,4.1,7.2,6.1,11.4,6.1c4,0,8.4-1.9,13.4-5.5c3.4,3.4,8.2,5.4,13,5.4c1,0,2.1-0.1,3.1-0.3
					c4.4-0.8,7.8-3.3,9.3-6.8L173.3,365.8z"/>
			</g>
			<rect x="122.6" y="363" fill="#563616" width="53.3" height="6.2"/>
		</g>
	</g>
</g>
</svg>
