<?xml version="1.0" encoding="utf-8"?>
<!-- Generator: Adobe Illustrator 18.1.1, SVG Export Plug-In . SVG Version: 6.00 Build 0)  -->
<svg version="1.1" id="Warstwa_1" xmlns="http://www.w3.org/2000/svg" xmlns:xlink="http://www.w3.org/1999/xlink" x="0px" y="0px"
	 viewBox="0 0 303.5 420" enable-background="new 0 0 303.5 420" xml:space="preserve">
<g>
	<g id="balloon_1_">
		<g>
			<path fill="#BE202E" d="M112.4,7.4c3.3-2.2,8-3.7,12.1-4.6C60.3,16.6,0,78.9,0,152c0,97.6,92.2,168.7,114.6,184.5
				C-61.6,108.1,112.4,7.4,112.4,7.4z"/>
			<path fill="#BE202E" d="M126.6,337.3l15.8-0.1c-62.8-229,0.1-335.5,0.1-335.5c1.3-0.7,2.5-1.2,3.7-1.6
				c-5.9,0.2-11.8,0.9-17.8,1.9c2.3-0.4,3.8-0.5,3.8-0.5C14.1,99.4,117.3,318.3,126.6,337.3z"/>
			<path fill="#BE202E" d="M164.6,337.1l15.8-0.1c9.9-19.5,116.1-235.6-1.8-333.3c0,0-0.1-0.2,1.1-0.1c-6.3-1.5-12.6-2.5-18.9-3.1
				c0.2,0.1,0.3,0.1,0.3,0.1C212.4,100.4,167.3,324.1,164.6,337.1z"/>
			<path fill="#BE202E" d="M193,335.5c23.1-18.4,108.8-92.6,110.5-183.4C304.7,86.6,254,29.8,196.8,8.7
				C216.9,21.8,355.8,123.5,193,335.5z"/>
			<path fill="#E7E7E7" d="M126.6,337.3c-9.3-19-112.5-237.9,5.7-335.8c0,0-1.5,0.2-3.8,0.5c-1.3,0.2-2.7,0.5-4,0.8
				c-4,0.9-8.7,2.4-12.1,4.6c0,0-174,100.7,2.2,329.1c0.4,0.3,0.7,0.5,1.1,0.8L126.6,337.3z"/>
			<path fill="#E7E7E7" d="M178.6,3.7c117.9,97.7,11.7,313.8,1.8,333.3l10.4,0l-0.1,0.3c0.7-0.5,1.5-1.2,2.3-1.8
				c162.8-212,23.9-313.7,3.8-326.7c-5.7-2.1-11.4-3.8-17.2-5.2C178.5,3.5,178.6,3.7,178.6,3.7z"/>
			<path fill="#E7E7E7" d="M142.4,337.2l22.2-0.1c2.7-13,47.8-236.7-3.5-336.5c0,0-0.1-0.1-0.3-0.1c-3.5-0.3-6.9-0.5-10.4-0.5
				c-1.4,0-2.8,0.1-4.2,0.1c-1.2,0.4-2.4,0.9-3.7,1.6C142.5,1.7,79.6,108.2,142.4,337.2z"/>
		</g>
		<g>
			<polygon fill="#563516" points="186.7,349.6 177,381.8 177.7,381.8 187.5,349.6 			"/>
			<polygon fill="#563516" points="119.6,349.6 118.9,349.6 129.2,382.4 130,382.4 			"/>
			<rect x="152.6" y="339.3" fill="#563516" width="0.6" height="42.7"/>
		</g>
		<polygon fill="#A31E22" points="187.5,349.6 118.8,349.6 101.4,326.9 203.8,326.9 		"/>
		<path fill="#E7E7E7" d="M141,331h4.6v1H141V331z M131.8,332h4.6v-1h-4.6V332z M122.7,332h4.6v-1h-4.6V332z M150.1,332h4.6v-1h-4.6
			V332z M105.3,332h3.7v-1h-4.4L105.3,332z M113.6,332h4.6v-1h-4.6V332z M186.6,332h4.6v-1h-4.6V332z M159.2,332h4.6v-1h-4.6V332z
			 M195.7,331v1h4.4l0.7-1H195.7z M168.3,332h4.6v-1h-4.6V332z M177.5,332h4.6v-1h-4.6V332z"/>
		<path fill="#E7E7E7" d="M141,343.5h4.6v1H141V343.5z M131.8,344.4h4.6v-1h-4.6V344.4z M122.7,344.4h4.6v-1h-4.6V344.4z
			 M150.1,344.4h4.6v-1h-4.6V344.4z M114.9,344.4h3.3v-1h-4L114.9,344.4z M186.6,344.4h4.6l0.7-1h-5.3V344.4z M159.2,344.4h4.6v-1
			h-4.6V344.4z M168.3,344.4h4.6v-1h-4.6V344.4z M177.5,344.4h4.6v-1h-4.6V344.4z"/>
	</g>
	<g id="basket">
		<g>
			<path fill="#754D29" d="M153,420c9.8,0,21.2-6.6,24.4-14.2c3.3-8,0-27.7,0-27.7h-48.9c0,0-3.3,19.7,0,27.7
				C131.7,413.4,143.2,420,153,420z"/>
			<g>
				<path fill="#603A17" d="M153,420c9.8,0,21.2-6.6,24.4-14.2c3.3-8,0-27.7,0-27.7h-9c3.6,28.4-15.8,50.1-39.8,27.7
					C131.7,413.4,143.2,420,153,420z"/>
			</g>
		</g>
		<g>
			<g>
				<path fill="#C3996B" d="M155.6,384.9L155.6,384.9c-2.7-2.5-3.3-7.3-3.3-7.3c0.3,3.4-3.1,7.2-3.1,7.2h0c-1.1,0.9-1.8,2.2-1.8,3.7
					c0,2.7,2.2,4.9,4.9,4.9c2.7,0,4.9-2.2,4.9-4.9C157.2,387.1,156.6,385.8,155.6,384.9z"/>
				<path fill="#C3996B" d="M131.8,385.6L131.8,385.6c-2.7-2.5-3.3-7.3-3.3-7.3c0.3,3.4-3.1,7.2-3.1,7.2h0c-1.1,0.9-1.8,2.2-1.8,3.7
					c0,2.7,2.2,4.9,4.9,4.9c2.7,0,4.9-2.2,4.9-4.9C133.4,387.7,132.8,386.5,131.8,385.6z"/>
				<path fill="#C3996B" d="M180.1,384.7L180.1,384.7c-2.7-2.5-3.3-7.3-3.3-7.3c0.3,3.4-3.1,7.2-3.1,7.2h0c-1.1,0.9-1.8,2.2-1.8,3.7
					c0,2.7,2.2,4.9,4.9,4.9c2.7,0,4.9-2.2,4.9-4.9C181.8,386.9,181.1,385.6,180.1,384.7z"/>
			</g>
			<path fill="#F6F3DC" d="M177.2,378.2c-1.4,3.3-4.5,5.6-8.7,6.3c-5.6,1-11.7-1-15.6-5.1l-0.3,0.3l-0.2-0.3
				c-12.9,9.8-19.8,4.5-23.9-0.3l-0.6,0.5c3.4,4.1,7.2,6.1,11.4,6.1c4,0,8.4-1.9,13.3-5.5c3.3,3.4,8.2,5.3,12.9,5.3
				c1,0,2.1-0.1,3.1-0.3c4.4-0.8,7.8-3.3,9.2-6.8L177.2,378.2z"/>
		</g>
		<rect x="127.2" y="377.1" fill="#563616" width="52.4" height="2.8"/>
	</g>
</g>
</svg>
