<?xml version="1.0" encoding="utf-8"?>
<!-- Generator: Adobe Illustrator 18.1.1, SVG Export Plug-In . SVG Version: 6.00 Build 0)  -->
<svg version="1.1" id="Warstwa_1" xmlns="http://www.w3.org/2000/svg" xmlns:xlink="http://www.w3.org/1999/xlink" x="0px" y="0px"
	 viewBox="0 0 480.6 394" enable-background="new 0 0 480.6 394" xml:space="preserve">
<g>
	<g>
		<g>
			<polygon fill="#6E6F71" points="448.7,184 370.2,67 239.9,20.8 109.6,67 30.8,184 			"/>
		</g>
		<polygon fill="#CE425A" points="361,74 239.9,31.1 118.9,74 61.4,159.7 61.4,394 418.4,394 418.4,159.7 		"/>
		<polygon fill="#FFFFFF" points="381.7,50.2 239.9,0 98.1,50.2 0,190.8 26.3,190.8 109.6,67 239.9,20.8 370.2,67 453.3,190.8 
			480.6,190.8 		"/>
		<g>
			<polygon fill="#911932" points="283.3,46.4 196.6,46.4 193,47.7 286.8,47.7 			"/>
			<polygon fill="#911932" points="138.6,67 341.3,67 337.7,65.7 142.1,65.7 			"/>
			<polygon fill="#911932" points="110.6,86.3 369.2,86.3 368.4,85 111.5,85 			"/>
			<polygon fill="#911932" points="97.7,105.6 382.1,105.6 381.3,104.3 98.5,104.3 			"/>
			<polygon fill="#911932" points="84.8,124.9 395.1,124.9 394.2,123.6 85.6,123.6 			"/>
			<polygon fill="#911932" points="71.8,144.2 408,144.2 407.1,142.9 72.7,142.9 			"/>
			<rect x="61.4" y="162.2" fill="#911932" width="357" height="1.3"/>
			<rect x="61.4" y="181.5" fill="#911932" width="357" height="1.3"/>
			<rect x="61.4" y="200.8" fill="#911932" width="357" height="1.3"/>
			<rect x="61.4" y="220.1" fill="#911932" width="357" height="1.3"/>
			<rect x="61.4" y="239.4" fill="#911932" width="357" height="1.3"/>
			<rect x="61.4" y="258.6" fill="#911932" width="357" height="1.3"/>
			<rect x="61.4" y="277.9" fill="#911932" width="357" height="1.3"/>
			<rect x="61.4" y="297.2" fill="#911932" width="357" height="1.3"/>
			<rect x="61.4" y="316.5" fill="#911932" width="357" height="1.3"/>
			<rect x="61.4" y="335.8" fill="#911932" width="357" height="1.3"/>
			<rect x="61.4" y="355.1" fill="#911932" width="357" height="1.3"/>
			<rect x="61.4" y="374.4" fill="#911932" width="357" height="1.3"/>
		</g>
		<polygon opacity="0.2" fill="#231F20" points="239.9,57.1 362.3,97.3 418.4,174.9 418.4,159.7 361,74 239.9,31.1 118.9,74 
			61.4,159.7 61.4,174.9 117.6,97.3 		"/>
	</g>
	<g>
		<g>
			<rect x="121" y="229.3" fill="#CE425A" width="119.3" height="164.7"/>
			<g>
				<rect x="131.5" y="229.3" fill="#911932" width="1.3" height="164.7"/>
				<rect x="145.4" y="229.3" fill="#911932" width="1.3" height="164.7"/>
				<rect x="159.2" y="229.3" fill="#911932" width="1.3" height="164.7"/>
				<rect x="173.1" y="229.3" fill="#911932" width="1.3" height="164.7"/>
				<rect x="186.9" y="229.3" fill="#911932" width="1.3" height="164.7"/>
				<rect x="200.8" y="229.3" fill="#911932" width="1.3" height="164.7"/>
				<rect x="214.6" y="229.3" fill="#911932" width="1.3" height="164.7"/>
				<rect x="228.5" y="229.3" fill="#911932" width="1.3" height="164.7"/>
			</g>
			<rect x="122.9" y="230.9" opacity="0.2" fill="#231F20" width="115.5" height="14.6"/>
			<path fill="#FFFFFF" d="M236.9,229.3H124.4H121v4.7v155.3v4.7h3.4h112.5h3.4v-4.7V234v-4.7H236.9z M233.3,234.3L180.6,307
				L128,234.3H233.3z M126.8,241.9l50.5,69.7l-50.5,69.7V241.9z M128,389l52.6-72.7l52.6,72.7H128z M234.5,381.4L184,311.6
				l50.5-69.7V381.4z"/>
		</g>
		<g>
			<rect x="240.3" y="229.3" fill="#CE425A" width="119.3" height="164.7"/>
			<g>
				<rect x="250.8" y="229.3" fill="#911932" width="1.3" height="164.7"/>
				<rect x="264.6" y="229.3" fill="#911932" width="1.3" height="164.7"/>
				<rect x="278.5" y="229.3" fill="#911932" width="1.3" height="164.7"/>
				<rect x="292.3" y="229.3" fill="#911932" width="1.3" height="164.7"/>
				<rect x="306.2" y="229.3" fill="#911932" width="1.3" height="164.7"/>
				<rect x="320" y="229.3" fill="#911932" width="1.3" height="164.7"/>
				<rect x="333.9" y="229.3" fill="#911932" width="1.3" height="164.7"/>
				<rect x="347.8" y="229.3" fill="#911932" width="1.3" height="164.7"/>
			</g>
			<rect x="242.2" y="230.9" opacity="0.2" fill="#231F20" width="115.5" height="14.6"/>
			<path fill="#FFFFFF" d="M356.2,229.3H243.7h-3.4v4.7v155.3v4.7h3.4h112.5h3.4v-4.7V234v-4.7H356.2z M352.6,234.3L299.9,307
				l-52.6-72.7H352.6z M246,241.9l50.5,69.7L246,381.4V241.9z M247.3,389l52.6-72.7l52.6,72.7H247.3z M353.8,381.4l-50.5-69.7
				l50.5-69.7V381.4z"/>
		</g>
	</g>
	<rect x="184.4" y="132.1" fill="#240F15" width="111.7" height="62.1"/>
	<g>
		<defs>
			<rect id="SVGID_1_" x="184.4" y="132.1" width="111.7" height="62.1"/>
		</defs>
		<clipPath id="SVGID_2_">
			<use xlink:href="#SVGID_1_"  overflow="visible"/>
		</clipPath>
		<g clip-path="url(#SVGID_2_)">
			<g>
				<g>
					<g>
						<g>
							<path fill="#FAAF42" d="M212.3,201.1c-4.6-9.3-14.6-32.8-7.1-49.5l3.4,1.5c-7,15.7,3.6,39.4,7,46.3L212.3,201.1z"/>
						</g>
						<g>
							<path fill="#DD9029" d="M211.5,200.7c-3.2-9.9-9.6-34.6,0.3-50l3.2,2c-9.3,14.5-2.2,39.5,0.1,46.8L211.5,200.7z"/>
						</g>
						<g>
							<path fill="#FAAF42" d="M210.6,202c-6.2-8.4-20.1-29.7-15.6-47.5l3.7,0.9c-4.2,16.6,10.4,38.1,15,44.3L210.6,202z"/>
						</g>
						<g>
							<path fill="#DD9029" d="M209.7,201.8c-4.9-9.2-15.5-32.4-8.4-49.3l3.5,1.5c-6.6,15.8,4.7,39.3,8.3,46.1L209.7,201.8z"/>
						</g>
						<g>
							<path fill="#FAAF42" d="M212.5,199.2c-2-10.2-5.5-35.5,6.2-49.6l2.9,2.4c-10.9,13.3-6.9,38.9-5.4,46.5L212.5,199.2z"/>
						</g>
						<g>
							<path fill="#DD9029" d="M211.8,198.7c-0.5-10.4-0.2-35.9,13.4-48.2l2.5,2.8c-12.7,11.5-12.6,37.5-12.2,45.2L211.8,198.7z"/>
						</g>
						<g>
							<path fill="#FAAF42" d="M208.4,203.4c-9.1-5.1-30.6-18.8-33.8-36.8l3.7-0.7c3,16.9,25.2,30.5,31.9,34.2L208.4,203.4z"/>
						</g>
						<g>
							<path fill="#DD9029" d="M207.5,203.6c-8.2-6.4-27.4-23.1-28-41.4l3.8-0.1c0.5,17.2,20.4,33.8,26.5,38.6L207.5,203.6z"/>
						</g>
						<g>
							<path fill="#FAAF42" d="M207.5,205.2c-9.8-3.4-33.4-13.2-39.7-30.4l3.5-1.3c5.9,16.1,30.1,25.6,37.4,28.2L207.5,205.2z"/>
						</g>
						<g>
							<path fill="#DD9029" d="M206.6,205.4c-9.2-4.8-31.1-18-34.8-35.9l3.7-0.8c3.5,16.8,26,29.8,32.8,33.4L206.6,205.4z"/>
						</g>
						<g>
							<path fill="#FAAF42" d="M207.5,201.8c-7.4-7.3-24.5-26.2-22.9-44.4l3.8,0.3c-1.5,17.1,16.3,36,21.8,41.4L207.5,201.8z"/>
						</g>
						<g>
							<path fill="#DD9029" d="M206.6,201.7c-6.3-8.3-20.4-29.5-16.1-47.3l3.7,0.9c-4,16.7,10.8,38,15.4,44.2L206.6,201.7z"/>
						</g>
						<g>
							<path fill="#FAAF42" d="M217.9,200.6c7.8-6.9,27.9-22.5,46-19.6l-0.6,3.7c-16.9-2.8-37.1,13.6-42.9,18.7L217.9,200.6z"/>
						</g>
						<g>
							<path fill="#DD9029" d="M218.1,199.7c8.7-5.7,30.9-18.2,48.4-12.6l-1.1,3.6c-16.4-5.2-38.7,8-45.2,12.2L218.1,199.7z"/>
						</g>
						<g>
							<path fill="#FAAF42" d="M216.6,199.2c6.5-8.1,23.6-27.1,41.9-27.3l0,3.8c-17.2,0.2-34.2,19.9-39,25.9L216.6,199.2z"/>
						</g>
						<g>
							<path fill="#DD9029" d="M216.6,198.3c7.6-7.1,27.3-23.3,45.4-20.8l-0.5,3.7c-17-2.3-36.7,14.6-42.4,19.8L216.6,198.3z"/>
						</g>
						<g>
							<path fill="#FAAF42" d="M219.8,200.3c9.3-4.6,32.9-14.4,49.5-6.8l-1.6,3.4c-15.6-7.1-39.4,3.3-46.3,6.7L219.8,200.3z"/>
						</g>
						<g>
							<path fill="#DD9029" d="M220.2,199.5c9.9-3.1,34.6-9.4,50,0.6l-2.1,3.2c-14.4-9.4-39.5-2.5-46.8-0.2L220.2,199.5z"/>
						</g>
						<g>
							<path fill="#FAAF42" d="M214.7,197.4c2.6-10.1,10.3-34.4,26.9-42.1l1.6,3.4c-15.6,7.3-23,32.2-24.9,39.6L214.7,197.4z"/>
						</g>
						<g>
							<path fill="#DD9029" d="M214.3,196.6c4-9.6,15.3-32.5,32.8-37.7l1.1,3.6c-16.5,4.9-27.5,28.4-30.4,35.5L214.3,196.6z"/>
						</g>
						<g>
							<path fill="#FAAF42" d="M212.8,197c0.8-10.4,4.2-35.6,19.2-46.2l2.2,3.1c-14.1,9.9-17,35.7-17.6,43.4L212.8,197z"/>
						</g>
						<g>
							<path fill="#DD9029" d="M212.3,196.2c2.3-10.1,9.4-34.6,25.8-42.8l1.7,3.4c-15.4,7.7-22.1,32.8-23.8,40.3L212.3,196.2z"/>
						</g>
						<g>
							<path fill="#FAAF42" d="M216,196.1c5.1-9,19-30.4,37.1-33.5l0.6,3.7c-16.9,2.9-30.6,25-34.4,31.7L216,196.1z"/>
						</g>
						<g>
							<path fill="#DD9029" d="M215.9,195.2c6.4-8.2,23.3-27.3,41.6-27.7l0.1,3.8c-17.2,0.4-34,20.2-38.7,26.3L215.9,195.2z"/>
						</g>
					</g>
				</g>
				<g opacity="0.4">
					<g>
						<g>
							<path fill="#231F20" d="M212.3,201.1c-4.6-9.3-14.6-32.8-7.1-49.5l3.4,1.5c-7,15.7,3.6,39.4,7,46.3L212.3,201.1z"/>
						</g>
						<g>
							<path fill="#231F20" d="M211.5,200.7c-3.2-9.9-9.6-34.6,0.3-50l3.2,2c-9.3,14.5-2.2,39.5,0.1,46.8L211.5,200.7z"/>
						</g>
						<g>
							<path fill="#231F20" d="M210.6,202c-6.2-8.4-20.1-29.7-15.6-47.5l3.7,0.9c-4.2,16.6,10.4,38.1,15,44.3L210.6,202z"/>
						</g>
						<g>
							<path fill="#231F20" d="M209.7,201.8c-4.9-9.2-15.5-32.4-8.4-49.3l3.5,1.5c-6.6,15.8,4.7,39.3,8.3,46.1L209.7,201.8z"/>
						</g>
						<g>
							<path fill="#231F20" d="M212.5,199.2c-2-10.2-5.5-35.5,6.2-49.6l2.9,2.4c-10.9,13.3-6.9,38.9-5.4,46.5L212.5,199.2z"/>
						</g>
						<g>
							<path fill="#231F20" d="M211.8,198.7c-0.5-10.4-0.2-35.9,13.4-48.2l2.5,2.8c-12.7,11.5-12.6,37.5-12.2,45.2L211.8,198.7z"/>
						</g>
						<g>
							<path fill="#231F20" d="M208.4,203.4c-9.1-5.1-30.6-18.8-33.8-36.8l3.7-0.7c3,16.9,25.2,30.5,31.9,34.2L208.4,203.4z"/>
						</g>
						<g>
							<path fill="#231F20" d="M207.5,203.6c-8.2-6.4-27.4-23.1-28-41.4l3.8-0.1c0.5,17.2,20.4,33.8,26.5,38.6L207.5,203.6z"/>
						</g>
						<g>
							<path fill="#231F20" d="M207.5,205.2c-9.8-3.4-33.4-13.2-39.7-30.4l3.5-1.3c5.9,16.1,30.1,25.6,37.4,28.2L207.5,205.2z"/>
						</g>
						<g>
							<path fill="#231F20" d="M206.6,205.4c-9.2-4.8-31.1-18-34.8-35.9l3.7-0.8c3.5,16.8,26,29.8,32.8,33.4L206.6,205.4z"/>
						</g>
						<g>
							<path fill="#231F20" d="M207.5,201.8c-7.4-7.3-24.5-26.2-22.9-44.4l3.8,0.3c-1.5,17.1,16.3,36,21.8,41.4L207.5,201.8z"/>
						</g>
						<g>
							<path fill="#231F20" d="M206.6,201.7c-6.3-8.3-20.4-29.5-16.1-47.3l3.7,0.9c-4,16.7,10.8,38,15.4,44.2L206.6,201.7z"/>
						</g>
						<g>
							<path fill="#231F20" d="M217.9,200.6c7.8-6.9,27.9-22.5,46-19.6l-0.6,3.7c-16.9-2.8-37.1,13.6-42.9,18.7L217.9,200.6z"/>
						</g>
						<g>
							<path fill="#231F20" d="M218.1,199.7c8.7-5.7,30.9-18.2,48.4-12.6l-1.1,3.6c-16.4-5.2-38.7,8-45.2,12.2L218.1,199.7z"/>
						</g>
						<g>
							<path fill="#231F20" d="M216.6,199.2c6.5-8.1,23.6-27.1,41.9-27.3l0,3.8c-17.2,0.2-34.2,19.9-39,25.9L216.6,199.2z"/>
						</g>
						<g>
							<path fill="#231F20" d="M216.6,198.3c7.6-7.1,27.3-23.3,45.4-20.8l-0.5,3.7c-17-2.3-36.7,14.6-42.4,19.8L216.6,198.3z"/>
						</g>
						<g>
							<path fill="#231F20" d="M219.8,200.3c9.3-4.6,32.9-14.4,49.5-6.8l-1.6,3.4c-15.6-7.1-39.4,3.3-46.3,6.7L219.8,200.3z"/>
						</g>
						<g>
							<path fill="#231F20" d="M220.2,199.5c9.9-3.1,34.6-9.4,50,0.6l-2.1,3.2c-14.4-9.4-39.5-2.5-46.8-0.2L220.2,199.5z"/>
						</g>
						<g>
							<path fill="#231F20" d="M214.7,197.4c2.6-10.1,10.3-34.4,26.9-42.1l1.6,3.4c-15.6,7.3-23,32.2-24.9,39.6L214.7,197.4z"/>
						</g>
						<g>
							<path fill="#231F20" d="M214.3,196.6c4-9.6,15.3-32.5,32.8-37.7l1.1,3.6c-16.5,4.9-27.5,28.4-30.4,35.5L214.3,196.6z"/>
						</g>
						<g>
							<path fill="#231F20" d="M212.8,197c0.8-10.4,4.2-35.6,19.2-46.2l2.2,3.1c-14.1,9.9-17,35.7-17.6,43.4L212.8,197z"/>
						</g>
						<g>
							<path fill="#231F20" d="M212.3,196.2c2.3-10.1,9.4-34.6,25.8-42.8l1.7,3.4c-15.4,7.7-22.1,32.8-23.8,40.3L212.3,196.2z"/>
						</g>
						<g>
							<path fill="#231F20" d="M216,196.1c5.1-9,19-30.4,37.1-33.5l0.6,3.7c-16.9,2.9-30.6,25-34.4,31.7L216,196.1z"/>
						</g>
						<g>
							<path fill="#231F20" d="M215.9,195.2c6.4-8.2,23.3-27.3,41.6-27.7l0.1,3.8c-17.2,0.4-34,20.2-38.7,26.3L215.9,195.2z"/>
						</g>
					</g>
				</g>
			</g>
			<g>
				<g>
					<g>
						<path fill="#FAAF42" d="M276.7,204.9c-4.6-9.3-14.6-32.8-7.1-49.5l3.4,1.5c-7,15.7,3.6,39.4,7,46.3L276.7,204.9z"/>
					</g>
					<g>
						<path fill="#DD9029" d="M275.9,204.5c-3.2-9.9-9.6-34.6,0.3-50l3.2,2c-9.3,14.5-2.2,39.5,0.1,46.8L275.9,204.5z"/>
					</g>
					<g>
						<path fill="#FAAF42" d="M275,205.8c-6.2-8.4-20.1-29.7-15.6-47.5l3.7,0.9c-4.2,16.6,10.4,38.1,15,44.3L275,205.8z"/>
					</g>
					<g>
						<path fill="#DD9029" d="M274.1,205.5c-4.9-9.2-15.5-32.4-8.4-49.3l3.5,1.5c-6.6,15.8,4.7,39.3,8.3,46.1L274.1,205.5z"/>
					</g>
					<g>
						<path fill="#FAAF42" d="M276.9,203c-2-10.2-5.5-35.5,6.2-49.6l2.9,2.4c-10.9,13.3-6.9,38.9-5.4,46.5L276.9,203z"/>
					</g>
					<g>
						<path fill="#DD9029" d="M276.2,202.4c-0.5-10.4-0.2-35.9,13.4-48.2l2.5,2.8c-12.7,11.5-12.6,37.5-12.2,45.2L276.2,202.4z"/>
					</g>
					<g>
						<path fill="#FAAF42" d="M272.8,207.2c-9.1-5.1-30.6-18.8-33.8-36.8l3.7-0.7c3,16.9,25.2,30.5,31.9,34.2L272.8,207.2z"/>
					</g>
					<g>
						<path fill="#DD9029" d="M271.9,207.3c-8.2-6.4-27.4-23.1-28-41.4l3.8-0.1c0.5,17.2,20.4,33.8,26.5,38.6L271.9,207.3z"/>
					</g>
					<g>
						<path fill="#FAAF42" d="M271.9,208.9c-9.8-3.4-33.4-13.2-39.7-30.4l3.5-1.3c5.9,16.1,30.1,25.6,37.4,28.2L271.9,208.9z"/>
					</g>
					<g>
						<path fill="#DD9029" d="M271,209.2c-9.2-4.8-31.1-18-34.8-35.9l3.7-0.8c3.5,16.8,26,29.8,32.8,33.4L271,209.2z"/>
					</g>
					<g>
						<path fill="#FAAF42" d="M271.9,205.6c-7.4-7.3-24.5-26.2-22.9-44.4l3.8,0.3c-1.5,17.1,16.3,36,21.8,41.4L271.9,205.6z"/>
					</g>
					<g>
						<path fill="#DD9029" d="M271,205.5c-6.3-8.3-20.4-29.5-16.1-47.3l3.7,0.9c-4,16.7,10.8,38,15.4,44.2L271,205.5z"/>
					</g>
					<g>
						<path fill="#FAAF42" d="M282.3,204.4c7.8-6.9,27.9-22.5,46-19.6l-0.6,3.7c-16.9-2.8-37.1,13.6-42.9,18.7L282.3,204.4z"/>
					</g>
					<g>
						<path fill="#DD9029" d="M282.5,203.5c8.7-5.7,30.9-18.2,48.4-12.6l-1.1,3.6c-16.4-5.2-38.7,8-45.2,12.2L282.5,203.5z"/>
					</g>
					<g>
						<path fill="#FAAF42" d="M281,202.9c6.5-8.1,23.6-27.1,41.9-27.3l0,3.8c-17.2,0.2-34.2,19.9-39,25.9L281,202.9z"/>
					</g>
					<g>
						<path fill="#DD9029" d="M281,202c7.6-7.1,27.3-23.3,45.4-20.8l-0.5,3.7c-17-2.3-36.7,14.6-42.4,19.8L281,202z"/>
					</g>
					<g>
						<path fill="#FAAF42" d="M284.2,204c9.3-4.6,32.9-14.4,49.5-6.8l-1.6,3.4c-15.6-7.1-39.4,3.3-46.3,6.7L284.2,204z"/>
					</g>
					<g>
						<path fill="#DD9029" d="M284.6,203.2c9.9-3.1,34.6-9.4,50,0.6l-2.1,3.2c-14.4-9.4-39.5-2.5-46.8-0.2L284.6,203.2z"/>
					</g>
					<g>
						<path fill="#FAAF42" d="M279.1,201.2c2.6-10.1,10.3-34.4,26.9-42.1l1.6,3.4c-15.6,7.3-23,32.2-24.9,39.6L279.1,201.2z"/>
					</g>
					<g>
						<path fill="#DD9029" d="M278.7,200.4c4-9.6,15.3-32.5,32.8-37.7l1.1,3.6c-16.5,4.9-27.5,28.4-30.4,35.5L278.7,200.4z"/>
					</g>
					<g>
						<path fill="#FAAF42" d="M277.2,200.7c0.8-10.4,4.2-35.6,19.2-46.2l2.2,3.1c-14.1,9.9-17,35.7-17.6,43.4L277.2,200.7z"/>
					</g>
					<g>
						<path fill="#DD9029" d="M276.7,200c2.3-10.1,9.4-34.6,25.8-42.8l1.7,3.4c-15.4,7.7-22.1,32.8-23.8,40.3L276.7,200z"/>
					</g>
					<g>
						<path fill="#FAAF42" d="M280.4,199.9c5.1-9,19-30.4,37.1-33.5l0.6,3.7c-16.9,2.9-30.6,25-34.4,31.7L280.4,199.9z"/>
					</g>
					<g>
						<path fill="#DD9029" d="M280.3,199c6.4-8.2,23.3-27.3,41.6-27.7l0.1,3.8c-17.2,0.4-34,20.2-38.7,26.3L280.3,199z"/>
					</g>
				</g>
			</g>
		</g>
	</g>
	<g>
		<path fill="#FFFFFF" d="M299,197.1H181.6v-67.8H299V197.1z M187.3,191.5h106V135h-106V191.5z"/>
	</g>
</g>
</svg>
