<?xml version="1.0" encoding="utf-8"?>
<!-- Generator: Adobe Illustrator 18.1.1, SVG Export Plug-In . SVG Version: 6.00 Build 0)  -->
<svg version="1.1" id="Warstwa_1" xmlns="http://www.w3.org/2000/svg" xmlns:xlink="http://www.w3.org/1999/xlink" x="0px" y="0px"
	 viewBox="0 0 670.1 221.5" enable-background="new 0 0 670.1 221.5" xml:space="preserve">
<g>
	<g>
		<path fill="#7B9F3E" d="M670.1,221.6C661.4,98.2,514.7,0,335.1,0S8.7,98.2,0,221.6H670.1z"/>
		<path fill="#8CAA47" d="M99,114.5l97.6-74.6c1.7-1.3,3.7-2.1,5.9-2.3l54.4-5.6c1.1-0.1,1.9,0.9,1.5,1.9l-35,102.6
			c-1.7,5.1-6.7,8.3-12,7.8l-106.4-8.9C94.5,134.6,90.6,121,99,114.5z"/>
		<path fill="#9DB856" d="M225.3,31.5l19.7-1.8c0.6-0.1,1.2-0.4,1.5-1l5.8-11.3c0.7-1.3-0.4-2.8-1.8-2.7l-9.2,1
			c-0.3,0-0.6,0.2-0.9,0.4l-16.2,12.1C222.6,29.3,223.5,31.6,225.3,31.5z"/>
		<path fill="#9DB856" d="M343.3,13l44.4,1.5c3.6,0.1,7,1.5,9.6,4l121.5,114.3c9.8,9.2,3.3,25.6-10.1,25.6h-143
			c-7,0-13.1-5-14.4-11.9l-23-115.8C326.5,21.3,333.8,12.7,343.3,13z"/>
		<path fill="#8CAA47" d="M459.5,58.6L494.6,92c1.4,1.3,3.2,2.1,5.2,2.1h25c7.5,0,10.4-9.8,4.1-13.9l-45.8-29.7
			c-1.2-0.8-2.6-1.2-4.1-1.2h-15.9C458.3,49.3,456,55.2,459.5,58.6z"/>
	</g>
</g>
</svg>
