<?xml version="1.0" encoding="utf-8"?>
<!-- Generator: Adobe Illustrator 18.1.1, SVG Export Plug-In . SVG Version: 6.00 Build 0)  -->
<svg version="1.1" id="Warstwa_1" xmlns="http://www.w3.org/2000/svg" xmlns:xlink="http://www.w3.org/1999/xlink" x="0px" y="0px"
	 viewBox="0 0 933.9 221.5" enable-background="new 0 0 933.9 221.5" xml:space="preserve">
<g>
	<path fill="#FBD381" d="M868.6,152.5c2.8-10.9,5.4-20.5,7.7-28.5c-18.9-17.4-41.9-33.6-68.3-48c-2.2,9.3-4.6,19.8-7,31.6
		C826.9,121.1,849.6,136.2,868.6,152.5z"/>
	<path fill="#FBD381" d="M109.8,120.5c-0.2-13.5-0.2-25.3-0.1-35.3c-29.7,18-54.3,38.3-72.8,60.2c1.4,8.3,3.2,18,5.4,29.2
		C60.1,155,82.9,136.9,109.8,120.5z"/>
	<path fill="#FBD381" d="M182.2,85.1c25.9-10.2,54-19.1,83.7-26.4c1.1-15,2.3-27.1,3.3-36.2c-30.8,7.4-59.7,16.5-86.4,27
		C182.4,57.6,182.1,69.5,182.2,85.1z"/>
	<path fill="#FBD381" d="M418.9,36.6c1.5-15.1,3-27.1,4.2-35.6c-28.1,1.3-55.5,4-81.9,7.8c-1,7.3-2.3,19.2-3.6,35.9
		C363.8,40.8,391,38.1,418.9,36.6z"/>
	<path fill="#FBD381" d="M565.8,40.8c2.9-15.4,5.5-27,7.2-34.6C546.2,3,518.4,1,490,0.3c-1.1,8.2-2.6,19.9-4,35.3
		C513.3,36.2,539.9,37.9,565.8,40.8z"/>
	<path fill="#FBD381" d="M724.9,75.2c3.1-12.6,5.9-23.5,8.4-32.5c-25.4-9-52.5-16.8-81.2-23.2c-1.9,8.4-4.1,19.7-6.5,34
		C673.5,59.5,700,66.8,724.9,75.2z"/>
	<path fill="#F7C961" d="M262.2,221.5c-1.6-69.3,0.9-125,3.7-162.8c-29.8,7.3-57.8,16.2-83.7,26.4c0.2,30.6,1.9,75.7,8,136.4H262.2z
		"/>
	<path fill="#F7C961" d="M114.7,221.5c-3.1-39.6-4.5-73.7-4.9-101c-26.9,16.3-49.7,34.5-67.5,54.1c2.7,13.5,6,29.1,10.1,46.9H114.7z
		"/>
	<path fill="#F7C961" d="M544.1,221.5c4.8-80,14.3-142.1,21.6-180.7c-25.8-2.9-52.5-4.6-79.7-5.2c-3.6,38.3-7.1,99.3-6,185.9H544.1z
		"/>
	<path fill="#F7C961" d="M410.5,221.5c-0.3-80.6,4.3-144.1,8.4-184.9c-27.9,1.5-55.1,4.2-81.3,8.1c-2.7,35.9-4.9,94-1.9,176.8H410.5
		z"/>
	<path fill="#F7C961" d="M697.5,221.5c8.4-61.1,18.7-110.7,27.4-146.3c-24.9-8.5-51.4-15.7-79.3-21.7c-6.1,36-13.1,91.2-17,168
		H697.5z"/>
	<path fill="#F7C961" d="M853.1,221.5c5.3-26.9,10.6-50.1,15.5-69c-19.1-16.3-41.8-31.4-67.5-44.9c-6.1,29.6-12.7,67.3-18.7,113.9
		H853.1z"/>
	<path fill="#F8C26B" d="M466.9,35.4c6.4,0,12.8,0.1,19.1,0.2c1.4-15.4,2.9-27.1,4-35.3C482.4,0.1,474.7,0,466.9,0
		c-14.8,0-29.4,0.4-43.9,1c-1.2,8.5-2.6,20.5-4.2,35.6C434.7,35.8,450.7,35.4,466.9,35.4z"/>
	<path fill="#F3B749" d="M480,221.5c-1.1-86.6,2.4-147.7,6-185.9c-6.3-0.1-12.7-0.2-19.1-0.2c-16.2,0-32.3,0.4-48,1.3
		c-4.2,40.7-8.7,104.3-8.4,184.9H480z"/>
	<path fill="#F8C26B" d="M645.6,53.6c2.4-14.3,4.7-25.6,6.5-34C626.8,14,600.4,9.5,573,6.2c-1.8,7.6-4.3,19.2-7.2,34.6
		C593.3,43.8,620,48.1,645.6,53.6z"/>
	<path fill="#F3B749" d="M628.6,221.5c3.8-76.7,10.9-131.9,17-168c-25.6-5.4-52.2-9.7-79.8-12.8c-7.3,38.6-16.9,100.7-21.6,180.7
		H628.6z"/>
	<path fill="#F8C26B" d="M801.1,107.6c2.4-11.8,4.8-22.4,7-31.6c-22.6-12.4-47.6-23.5-74.8-33.2c-2.5,9-5.3,19.8-8.4,32.5
		C752.5,84.6,778,95.5,801.1,107.6z"/>
	<path fill="#F3B749" d="M782.4,221.5c6-46.6,12.6-84.3,18.7-113.9c-23.1-12.1-48.6-23-76.2-32.3c-8.7,35.6-19,85.2-27.4,146.3
		H782.4z"/>
	<path fill="#F8C26B" d="M923.1,221.5h10.8c-5.6-35.2-25.8-68.3-57.5-97.6c-2.3,8.1-4.9,17.6-7.7,28.5
		C893.3,173.6,911.9,196.8,923.1,221.5z"/>
	<path fill="#F3B749" d="M923.1,221.5c-11.2-24.7-29.8-47.9-54.5-69c-4.8,19-10.2,42.1-15.5,69H923.1z"/>
	<path fill="#F8C26B" d="M337.6,44.7c1.2-16.7,2.6-28.6,3.6-35.9c-24.9,3.6-48.9,8.2-72,13.7c-1,9.1-2.2,21.2-3.3,36.2
		C288.8,53.1,312.8,48.4,337.6,44.7z"/>
	<path fill="#F3B749" d="M335.7,221.5c-3-82.8-0.8-140.9,1.9-176.8c-24.8,3.7-48.8,8.4-71.7,14c-2.8,37.8-5.4,93.5-3.7,162.8H335.7z
		"/>
	<path fill="#F8C26B" d="M109.8,120.5c21.6-13.1,45.9-25,72.3-35.4c-0.1-15.6,0.2-27.5,0.6-35.6C156,60,131.5,72,109.7,85.2
		C109.6,95.3,109.6,107.1,109.8,120.5z"/>
	<path fill="#F3B749" d="M190.1,221.5c-6-60.7-7.8-105.9-8-136.4c-26.5,10.5-50.7,22.4-72.3,35.4c0.4,27.3,1.8,61.4,4.9,101H190.1z"
		/>
	<path fill="#F8C26B" d="M10.8,221.5c7.4-16.3,18-32,31.5-46.9c-2.2-11.2-4-20.9-5.4-29.2C17,169.1,4.3,194.7,0,221.5H10.8z"/>
	<path fill="#F3B749" d="M52.4,221.5c-4.1-17.8-7.5-33.4-10.1-46.9c-13.5,14.9-24.1,30.5-31.5,46.9H52.4z"/>
</g>
</svg>
