<?xml version="1.0" encoding="utf-8"?>
<!-- Generator: Adobe Illustrator 18.1.1, SVG Export Plug-In . SVG Version: 6.00 Build 0)  -->
<svg version="1.1" id="Warstwa_1" xmlns="http://www.w3.org/2000/svg" xmlns:xlink="http://www.w3.org/1999/xlink" x="0px" y="0px"
	 viewBox="0 0 673 221.5" enable-background="new 0 0 673 221.5" xml:space="preserve">
<g>
	<g>
		<path fill="#6B8F3C" d="M673,221.5C664.3,98.2,517,0,336.5,0S8.7,98.2,0,221.5H673z"/>
		<path fill="#7EA23E" d="M98.7,97.4l45.4-39.5c2.4-2.1,5.5-3.4,8.7-3.7l25.1-1.9c5.2-0.4,8.9,5.1,6.6,9.8
			c-7.4,14.8-20.5,40.8-26.5,51.6c-1.7,3.1-3.3,4.8-7.1,4.5c-1-0.1-26.5-2.9-47.3-5.2C95.8,112.1,92.8,102.5,98.7,97.4z"/>
		<path fill="#789A47" d="M233.3,25l65.9-7.6c10.8-1.2,20.4,6.6,21.5,17.4l12.7,133.7c1.1,11.4-7.9,21.2-19.3,21.2H182.6
			c-13.8,0-23.2-14.1-17.8-26.8l52.9-126.2C220.3,30.3,226.3,25.8,233.3,25z"/>
		<path fill="#789A47" d="M389.3,22.9l31.5,2c2,0.1,3.9,1.1,5.1,2.6l101.2,123.8c3.9,4.7,0.5,11.8-5.6,11.8h-66.1
			c-2.7,0-5.2-1.5-6.4-3.9L382.4,33.6C379.8,28.6,383.6,22.6,389.3,22.9z"/>
	</g>
</g>
</svg>
