<?xml version="1.0" encoding="utf-8"?>
<!-- Generator: Adobe Illustrator 18.1.1, SVG Export Plug-In . SVG Version: 6.00 Build 0)  -->
<svg version="1.1" id="Warstwa_1" xmlns="http://www.w3.org/2000/svg" xmlns:xlink="http://www.w3.org/1999/xlink" x="0px" y="0px"
	 viewBox="0 0 79.7 79.7" enable-background="new 0 0 79.7 79.7" xml:space="preserve">
<g>
	<circle fill="#F8B24C" cx="39.9" cy="39.9" r="39.9"/>
	<g>
		<path fill="#C5862D" d="M38.7,8.8C21.6,9.4,8.2,23.9,8.8,41C9.4,58.1,23.9,71.6,41,70.9c17.1-0.6,30.5-15.1,29.9-32.2
			C70.3,21.6,55.8,8.2,38.7,8.8z M40.9,68.2c-15.6,0.6-28.8-11.6-29.4-27.3C11,25.3,23.2,12.1,38.8,11.5
			C54.4,11,67.6,23.2,68.2,38.8C68.8,54.4,56.5,67.6,40.9,68.2z"/>
		<path fill="#C5862D" d="M39,18c-12,0.5-21.5,10.6-21,22.7c0.5,12,10.6,21.5,22.7,21s21.5-10.6,21-22.7C61.2,27,51.1,17.6,39,18z
			 M40.6,59.1c-10.6,0.4-19.6-7.9-20-18.6c-0.4-10.6,7.9-19.6,18.6-20c10.6-0.4,19.6,7.9,20,18.6C59.5,49.8,51.2,58.7,40.6,59.1z"/>
		<path fill="#C5862D" d="M39.4,26.4c-7.4,0.3-13.2,6.5-13,14c0.3,7.4,6.5,13.2,14,13c7.4-0.3,13.2-6.5,13-14
			C53,31.9,46.8,26.1,39.4,26.4z M40.3,50.6c-5.9,0.2-10.9-4.4-11.1-10.3c-0.2-5.9,4.4-10.9,10.3-11.1c5.9-0.2,10.9,4.4,11.1,10.3
			C50.8,45.4,46.2,50.3,40.3,50.6z"/>
	</g>
</g>
</svg>
