<?xml version="1.0" encoding="utf-8"?>
<!-- Generator: Adobe Illustrator 18.1.1, SVG Export Plug-In . SVG Version: 6.00 Build 0)  -->
<svg version="1.1" id="Warstwa_1" xmlns="http://www.w3.org/2000/svg" xmlns:xlink="http://www.w3.org/1999/xlink" x="0px" y="0px"
	 viewBox="0 0 90.5 89" enable-background="new 0 0 90.5 89" xml:space="preserve">
<g>
	<g>
		<polygon fill="#56564B" points="33.5,89 0,50 5.1,17 35.8,0 71.2,0.8 90.5,48.6 78.9,78.9 		"/>
		<polygon fill="#818171" points="5.1,17 35.8,0 71.2,0.8 68.4,5.4 51,10.2 46.1,17.4 26.5,13.1 		"/>
		<polygon fill="#8C8A7A" points="5.1,17 35.8,0 51,10.2 38,27.9 25.2,39 23.6,38.9 16.6,25.9 9,21.2 		"/>
		<polygon fill="#9D9B87" points="5.1,17 9,21.2 16.6,25.9 23.6,38.9 12.6,41.9 0,50 		"/>
		<polygon fill="#6B6A5D" points="33.5,89 0,50 12.6,41.9 23.6,38.9 25.2,39 47.9,62.8 48.6,85.1 		"/>
		<polygon fill="#636356" points="47.9,62.8 64,50.9 90.5,48.6 71.2,0.8 68.4,5.4 51,10.2 46.1,17.4 38,27.9 25.2,39 		"/>
	</g>
	<polygon fill="#43433A" points="88.5,53.9 84.3,56.8 82.3,49 73.5,45.8 71.1,42.4 75.5,33.1 71.5,38.3 68.8,43 71,46.4 67.5,49.4 
		62.8,45.1 58.2,45.6 52.7,44 51.2,48.7 53.5,45.5 58.9,48.4 62,48.3 66.1,52.2 72.3,49.3 79,52.6 81.7,63.1 82.5,69.6 	"/>
	<polygon fill="#949381" points="51.2,48.7 53.1,45 58.9,47.9 61.9,47.7 66.4,51.7 72.3,48.6 79,52.6 72.3,49.9 66,53.4 62,48.3 
		58.5,48.8 53.6,46 	"/>
</g>
</svg>
