<?xml version="1.0" encoding="utf-8"?>
<!-- Generator: Adobe Illustrator 18.1.1, SVG Export Plug-In . SVG Version: 6.00 Build 0)  -->
<svg version="1.1" id="Warstwa_1" xmlns="http://www.w3.org/2000/svg" xmlns:xlink="http://www.w3.org/1999/xlink" x="0px" y="0px"
	 viewBox="0 0 79.4 68.7" enable-background="new 0 0 79.4 68.7" xml:space="preserve">
<g>
	<g>
		<polygon fill="#767566" points="24.9,68.7 0,54.8 0,23.4 40.3,0 79.4,24 72.2,42.8 		"/>
		<polygon fill="#656457" points="37.5,16 38.1,18 44.7,25.1 49.4,32.5 55,47.6 66.3,36.8 79.4,24 40.3,0 44,6.1 40.1,14.2 		"/>
		<g>
			<polygon fill="#9D9B87" points="30.5,58.2 17.3,19.9 0,23.4 0,54.8 24.9,68.7 29.2,61.1 			"/>
			<polygon fill="#59594D" points="66.3,36.8 55,47.6 39.7,57.2 30.2,56.7 24.9,68.7 72.2,42.8 79.4,24 			"/>
		</g>
		<polygon fill="#8C8A7A" points="0,23.4 40.3,0 44,6.1 40.1,14.2 37.5,16 18.6,23.6 11.9,22.5 		"/>
	</g>
	<polygon fill="#656457" points="30.2,56.7 0,54.8 24.9,68.7 	"/>
	<g>
		<polygon fill="#43433A" points="0.8,43.3 2,39.8 5.7,36.7 8.4,36.7 22.9,41.6 28.6,39.4 33.4,43.5 29.7,37.7 23.3,39.1 9.4,34.3 
			4.9,33.5 0.8,35.8 0,31 0,49.3 1,45.4 		"/>
		<polygon fill="#949381" points="33.4,43.5 29.7,37.7 23.3,39.1 9.4,34.3 4.9,33.5 9.4,33.5 23.4,38 30.3,36.4 		"/>
	</g>
</g>
</svg>
