<?xml version="1.0" encoding="utf-8"?>
<!-- Generator: Adobe Illustrator 18.1.1, SVG Export Plug-In . SVG Version: 6.00 Build 0)  -->
<svg version="1.1" id="Warstwa_1" xmlns="http://www.w3.org/2000/svg" xmlns:xlink="http://www.w3.org/1999/xlink" x="0px" y="0px"
	 viewBox="0 0 65 49.3" enable-background="new 0 0 65 49.3" xml:space="preserve">
<g>
	<polygon fill="#767566" points="6.4,49.3 0,23.8 21.1,0 48,1.1 65,36.4 40.7,46.5 	"/>
	<polygon fill="#8C8A7A" points="21.1,0 48,1.1 42,4.6 36.3,9.6 33.5,9.8 28.9,8 27.9,4.9 	"/>
	<polygon fill="#656457" points="33.5,9.8 34.8,13 34.5,21.9 35.4,30.2 38.9,35.4 56.5,38.2 65,36.4 48,1.1 42,4.6 36.3,9.6 	"/>
	<g>
		<polygon fill="#656457" points="38.9,35.4 30.4,33.2 16.5,29.1 0,23.8 6.4,49.3 14.6,41.4 		"/>
		<polygon fill="#59594D" points="56.5,38.2 38.9,35.4 29.4,37.8 14.6,41.4 6.4,49.3 40.7,46.5 65,36.4 		"/>
	</g>
</g>
</svg>
