<?xml version="1.0" encoding="utf-8"?>
<!-- Generator: Adobe Illustrator 18.1.1, SVG Export Plug-In . SVG Version: 6.00 Build 0)  -->
<svg version="1.1" id="Warstwa_1" xmlns="http://www.w3.org/2000/svg" xmlns:xlink="http://www.w3.org/1999/xlink" x="0px" y="0px"
	 viewBox="0 0 149.1 471.3" enable-background="new 0 0 149.1 471.3" xml:space="preserve">
<g>
	<g>
		<g>
			<path fill="#A6A8AC" d="M149.1,71.3C147.4,31.7,114.7,0,74.6,0C34.4,0,1.8,31.7,0,71.3H149.1z"/>
		</g>
		<g>
			<rect x="0" y="71.3" fill="#6E6F71" width="149.1" height="341.4"/>
		</g>
		<g>
			<rect x="0" y="412.7" fill="#414142" width="149.1" height="58.6"/>
		</g>
		<g>
			<path fill="#919191" d="M98.6,71.3h50.5C147.4,31.7,114.7,0,74.6,0C98.6,6.3,98.6,71.3,98.6,71.3z"/>
		</g>
		<g>
			<rect x="98.6" y="71.3" fill="#616161" width="50.5" height="341.4"/>
		</g>
		<g>
			<rect x="98.6" y="412.7" fill="#303030" width="50.5" height="58.6"/>
		</g>
		<g>
			<path fill="#C4C4C4" d="M39.3,35.7C30.9,41.8,9.8,53.2,12,47.9c8.2-19.3,25-33.8,45.5-39.1C63,7.4,47.6,29.5,39.3,35.7z"/>
		</g>
		<g>
			<g>
				<rect x="0" y="70.5" fill="#595A5C" width="149.1" height="1.7"/>
			</g>
			<g>
				<rect x="0" y="86.8" fill="#595A5C" width="149.1" height="1.7"/>
			</g>
			<g>
				<rect x="0" y="103" fill="#595A5C" width="149.1" height="1.7"/>
			</g>
			<g>
				<rect x="0" y="119.3" fill="#595A5C" width="149.1" height="1.7"/>
			</g>
			<g>
				<rect x="0" y="135.5" fill="#595A5C" width="149.1" height="1.7"/>
			</g>
			<g>
				<rect x="0" y="151.8" fill="#595A5C" width="149.1" height="1.7"/>
			</g>
			<g>
				<rect x="0" y="168" fill="#595A5C" width="149.1" height="1.7"/>
			</g>
			<g>
				<rect x="0" y="184.3" fill="#595A5C" width="149.1" height="1.7"/>
			</g>
			<g>
				<rect x="0" y="200.6" fill="#595A5C" width="149.1" height="1.7"/>
			</g>
			<g>
				<rect x="0" y="216.8" fill="#595A5C" width="149.1" height="1.7"/>
			</g>
			<g>
				<rect x="0" y="233.1" fill="#595A5C" width="149.1" height="1.7"/>
			</g>
			<g>
				<rect x="0" y="249.3" fill="#595A5C" width="149.1" height="1.7"/>
			</g>
			<g>
				<rect x="0" y="265.6" fill="#595A5C" width="149.1" height="1.7"/>
			</g>
			<g>
				<rect x="0" y="281.8" fill="#595A5C" width="149.1" height="1.7"/>
			</g>
			<g>
				<rect x="0" y="298.1" fill="#595A5C" width="149.1" height="1.7"/>
			</g>
			<g>
				<rect x="0" y="314.3" fill="#595A5C" width="149.1" height="1.7"/>
			</g>
			<g>
				<rect x="0" y="330.6" fill="#595A5C" width="149.1" height="1.7"/>
			</g>
			<g>
				<rect x="0" y="346.9" fill="#595A5C" width="149.1" height="1.7"/>
			</g>
			<g>
				<rect x="0" y="363.1" fill="#595A5C" width="149.1" height="1.7"/>
			</g>
			<g>
				<rect x="0" y="379.4" fill="#595A5C" width="149.1" height="1.7"/>
			</g>
			<g>
				<rect x="0" y="395.6" fill="#595A5C" width="149.1" height="1.7"/>
			</g>
			<g>
				<rect x="0" y="411.9" fill="#595A5C" width="149.1" height="1.7"/>
			</g>
		</g>
	</g>
	<path fill="#E7E7E7" d="M28.9,78v2.6H15.2V78H13v393.3h2.2v-23.2h13.7v23.2h2.2V78H28.9z M28.9,82.4v12.3H15.2V82.4H28.9z
		 M15.2,418.2v-12.3h13.7v12.3H15.2z M28.9,420v12.3H15.2V420H28.9z M15.2,404.1v-12.3h13.7v12.3H15.2z M15.2,390.1v-12.3h13.7v12.3
		H15.2z M15.2,376v-12.3h13.7V376H15.2z M15.2,361.9v-12.3h13.7v12.3H15.2z M15.2,347.9v-12.3h13.7v12.3H15.2z M15.2,333.8v-12.3
		h13.7v12.3H15.2z M15.2,319.7v-12.3h13.7v12.3H15.2z M15.2,305.7v-12.3h13.7v12.3H15.2z M15.2,291.6v-12.3h13.7v12.3H15.2z
		 M15.2,277.5v-12.3h13.7v12.3H15.2z M15.2,263.5v-12.3h13.7v12.3H15.2z M15.2,249.4v-12.3h13.7v12.3H15.2z M15.2,235.4v-12.3h13.7
		v12.3H15.2z M15.2,221.3V209h13.7v12.3H15.2z M15.2,207.2v-12.3h13.7v12.3H15.2z M15.2,193.2v-12.3h13.7v12.3H15.2z M15.2,179.1
		v-12.3h13.7v12.3H15.2z M15.2,165v-12.3h13.7V165H15.2z M15.2,151v-12.3h13.7V151H15.2z M15.2,136.9v-12.3h13.7v12.3H15.2z
		 M15.2,122.8v-12.3h13.7v12.3H15.2z M15.2,108.8V96.5h13.7v12.3H15.2z M15.2,446.3V434h13.7v12.3H15.2z"/>
</g>
</svg>
