<?xml version="1.0" encoding="utf-8"?>
<!-- Generator: Adobe Illustrator 18.1.1, SVG Export Plug-In . SVG Version: 6.00 Build 0)  -->
<svg version="1.1" id="Warstwa_1" xmlns="http://www.w3.org/2000/svg" xmlns:xlink="http://www.w3.org/1999/xlink" x="0px" y="0px"
	 viewBox="0 0 195.9 140.8" enable-background="new 0 0 195.9 140.8" xml:space="preserve">
<g>
	<path fill="#BDBEC0" d="M37.2,19.2l0,14.5l3.9,0l0-14.5c0-1.3,1-2.3,2.3-2.3l0-3.9C40,13,37.2,15.8,37.2,19.2z"/>
	<path fill="#6E6F71" d="M42.1,62.7l-5.9,0c-1.5,0-2.7-1.2-2.7-2.7l0-25.6c0-1.5,1.2-2.7,2.7-2.7l5.9,0c1.5,0,2.7,1.2,2.7,2.7
		l0,25.6C44.7,61.5,43.5,62.7,42.1,62.7z"/>
	<path fill="#808184" d="M39.3,62.7l-3.5,0c-1.2,0-2.2-1-2.3-2.2l0-26.4c0-1.2,1-2.2,2.2-2.3l3.5,0c1.2,0,2.2,1,2.3,2.2l0,26.4
		C41.5,61.7,40.5,62.7,39.3,62.7z"/>
	<g>
		<path fill="#D43433" d="M94.3,2.8l-11,47.1l-49.7,2.9C26.5,53.2,21,58.3,21,64.5l0.1,45.9l48-0.1l51.8-0.1l56.3-0.1L177.1,2.7
			L94.3,2.8z"/>
		<polygon opacity="0.61" fill="#424143" points="93.9,4.5 177.1,4.4 177.1,2.7 94.3,2.8 		"/>
		<path fill="#BDBEC0" d="M178.9,2.8L92,2.9c-0.8,0-1.4-0.6-1.4-1.4l0,0c0-0.8,0.6-1.4,1.4-1.4L178.8,0c0.8,0,1.4,0.6,1.4,1.4l0,0
			C180.3,2.2,179.6,2.8,178.9,2.8z"/>
		<g>
			<path fill="#C9EBFC" d="M98.2,11.2L87.4,59.1l23.8,0l18.5-10l-0.1-42.6l-25.6,0C101.3,6.5,98.8,8.5,98.2,11.2z"/>
			<path fill="#C9EBFC" d="M138.2,45.6l32.5,0l0-33.1c0-3.3-2.7-6-6-6l-26.4,0L138.2,45.6z"/>
		</g>
		<g>
			<path fill="#424143" d="M68.3,65.2l-40.5,0.1c-0.4,0-0.7-0.3-0.7-0.7l0,0c0-0.4,0.3-0.7,0.7-0.7l40.5-0.1c0.4,0,0.7,0.3,0.7,0.7
				l0,0C69,64.8,68.7,65.2,68.3,65.2z"/>
			<path fill="#424143" d="M68.3,68.4l-40.5,0.1c-0.4,0-0.7-0.3-0.7-0.7l0,0c0-0.4,0.3-0.7,0.7-0.7L68.3,67c0.4,0,0.7,0.3,0.7,0.7
				l0,0C69,68.1,68.7,68.4,68.3,68.4z"/>
			<path fill="#424143" d="M68.3,71.7l-40.5,0.1c-0.4,0-0.7-0.3-0.7-0.7l0,0c0-0.4,0.3-0.7,0.7-0.7l40.5-0.1c0.4,0,0.7,0.3,0.7,0.7
				l0,0C69,71.4,68.7,71.7,68.3,71.7z"/>
			<path fill="#424143" d="M68.3,74.9L27.8,75c-0.4,0-0.7-0.3-0.7-0.7l0,0c0-0.4,0.3-0.7,0.7-0.7l40.5-0.1c0.4,0,0.7,0.3,0.7,0.7
				l0,0C69,74.6,68.7,74.9,68.3,74.9z"/>
			<path fill="#424143" d="M68.3,78.2l-40.5,0.1c-0.4,0-0.7-0.3-0.7-0.7l0,0c0-0.4,0.3-0.7,0.7-0.7l40.5-0.1c0.4,0,0.7,0.3,0.7,0.7
				l0,0C69,77.9,68.7,78.2,68.3,78.2z"/>
			<path fill="#424143" d="M68.3,81.4l-40.5,0.1c-0.4,0-0.7-0.3-0.7-0.7l0,0c0-0.4,0.3-0.7,0.7-0.7l40.5-0.1c0.4,0,0.7,0.3,0.7,0.7
				l0,0C69,81.1,68.7,81.4,68.3,81.4z"/>
			<path fill="#424143" d="M68.3,84.7l-40.5,0.1c-0.4,0-0.7-0.3-0.7-0.7l0,0c0-0.4,0.3-0.7,0.7-0.7l40.5-0.1c0.4,0,0.7,0.3,0.7,0.7
				l0,0C69,84.4,68.7,84.7,68.3,84.7z"/>
			<path fill="#424143" d="M68.3,88L27.8,88c-0.4,0-0.7-0.3-0.7-0.7l0,0c0-0.4,0.3-0.7,0.7-0.7l40.5-0.1c0.4,0,0.7,0.3,0.7,0.7l0,0
				C69,87.7,68.7,88,68.3,88z"/>
			<path fill="#424143" d="M68.3,91.2l-40.5,0.1c-0.4,0-0.7-0.3-0.7-0.7l0,0c0-0.4,0.3-0.7,0.7-0.7l40.5-0.1c0.4,0,0.7,0.3,0.7,0.7
				l0,0C69,90.9,68.7,91.2,68.3,91.2z"/>
		</g>
		<path fill="#B12325" d="M190.3,73.1c-1.6-2.8-3.4-5.5-5.6-7.9c-2.1-2.5-4.5-4.7-7.1-6.7c-5.2-4-11.2-6.9-17.5-8.5
			c-3.2-0.8-6.4-1.3-9.7-1.5c-3.3-0.1-6.6,0-9.8,0.5c-6.5,1-12.8,3.3-18.4,6.8c-5.5,3.5-10.4,8.1-14.1,13.4
			c-3.7,5.3-6.3,11.4-7.6,17.8c-1.3,6.3-1.2,12.9,0.2,19c-0.5-6.3,0-12.6,1.8-18.6c1.7-6,4.5-11.5,8.2-16.4c3.8-4.8,8.3-9,13.6-12
			c5.2-3.1,11-5.2,17-6.1c6-0.9,12.1-0.7,18,0.7c5.9,1.3,11.5,3.9,16.6,7.4c5,3.5,9.4,7.9,12.8,13.1c3.5,5.1,5.9,11,7.3,17.2
			C195.4,85,193.4,78.7,190.3,73.1z"/>
		<path fill="#272626" d="M172.6,56.7c-1.1-0.5-2.1-0.9-3-1.3c-8.6-4.2-18.5-6-28.7-4.4c-23.7,3.7-40.7,24-40.8,47.2l-36.7,0
			c-1-3.1-2.5-6.2-4.4-8.9c-2.5-3.6-5.8-6.7-9.5-9c-3.7-2.3-8-3.9-12.3-4.6c-2.2-0.3-4.4-0.4-6.6-0.3c-2.2,0.1-4.4,0.4-6.5,1
			c-4.3,1.1-8.3,3.1-11.8,5.8c-1.7,1.3-3.3,2.8-4.8,4.5c-1.4,1.7-2.7,3.4-3.7,5.3c-2.1,3.8-3.4,8-3.7,12.2l21,0l0,6.1l29.6,0
			l0.1,3.8l13.4,0c0.3-1.2,0.5-2.5,0.6-3.8l4.4,0l32.1,0l19.7,0l52-0.1l0-12.1l0-6.9l23,0C195.9,91.3,192.6,66.4,172.6,56.7z"/>
		<g>
			<path fill="#424143" d="M152.7,55.1L152.7,55.1c1.4,1.9,4.1,2.3,6.1,1l0,0c2.4-1.7,5.8-0.6,6.7,2.2l0,0c0.8,2.3,3.2,3.5,5.5,2.8
				l0,0c2.8-0.9,5.7,1.2,5.7,4.1l0,0c0,2.4,2,4.3,4.3,4.3l0,0c2.9,0,5,2.9,4.2,5.7l0,0c-0.7,2.3,0.5,4.7,2.8,5.5l0,0
				c2.8,0.9,3.9,4.3,2.2,6.7l0,0c-1.4,2-0.9,4.6,1,6.1l0,0c2.4,1.8,2.4,5.3,0,7.1l0,0c-1.9,1.4-2.3,4.1-1,6.1l0,0
				c1.7,2.4,0.6,5.8-2.2,6.7l0,0c-2.3,0.8-3.5,3.2-2.8,5.5v0c0.9,2.8-1.2,5.7-4.1,5.7l0,0c-2.4,0-4.3,2-4.3,4.3l0,0
				c0,2.9-2.9,5-5.7,4.2v0c-2.3-0.7-4.7,0.5-5.5,2.8l0,0c-0.9,2.8-4.3,3.9-6.7,2.2l0,0c-2-1.4-4.6-0.9-6.1,1l0,0
				c-1.8,2.4-5.3,2.4-7.1,0l0,0c-1.4-1.9-4.1-2.3-6.1-1l0,0c-2.4,1.7-5.8,0.6-6.7-2.2l0,0c-0.8-2.3-3.2-3.5-5.5-2.8v0
				c-2.8,0.9-5.7-1.2-5.7-4.1l0,0c0-2.4-2-4.3-4.3-4.3l0,0c-2.9,0-5-2.9-4.2-5.7v0c0.7-2.3-0.5-4.7-2.8-5.5l0,0
				c-2.8-0.9-3.9-4.3-2.2-6.7h0c1.4-2,0.9-4.6-1-6.1l0,0c-2.4-1.8-2.4-5.3,0-7.1l0,0c1.9-1.4,2.3-4.1,1-6.1h0
				c-1.7-2.4-0.6-5.8,2.2-6.7l0,0c2.3-0.8,3.5-3.2,2.8-5.5l0,0c-0.9-2.8,1.2-5.7,4.1-5.7l0,0c2.4,0,4.3-2,4.3-4.3l0,0
				c0-2.9,2.9-5,5.7-4.2l0,0c2.3,0.7,4.7-0.5,5.5-2.8l0,0c0.9-2.8,4.3-3.9,6.7-2.2l0,0c2,1.4,4.6,0.9,6.1-1l0,0
				C147.5,52.8,151,52.8,152.7,55.1z"/>
			<circle fill="#353635" cx="149.3" cy="97" r="25.2"/>
			<circle fill="#BDBEC0" cx="149.3" cy="97" r="19.5"/>
			<g>
				<circle fill="#424143" cx="149.3" cy="97" r="8.3"/>
			</g>
		</g>
		<g>
			<path fill="#424143" d="M34,80.8L34,80.8c1,1.3,2.9,1.6,4.3,0.7l0,0c1.7-1.2,4-0.4,4.7,1.5l0,0c0.5,1.6,2.2,2.4,3.8,2l0,0
				c2-0.6,4,0.8,4,2.9l0,0c0,1.7,1.4,3,3.1,3l0,0c2.1,0,3.5,2,2.9,4l0,0c-0.5,1.6,0.4,3.3,2,3.8l0,0c2,0.7,2.7,3,1.5,4.7l0,0
				c-1,1.4-0.7,3.3,0.7,4.3l0,0c1.7,1.2,1.7,3.7,0,4.9l0,0c-1.3,1-1.6,2.9-0.7,4.3l0,0c1.2,1.7,0.4,4-1.5,4.7l0,0
				c-1.6,0.5-2.4,2.2-2,3.8l0,0c0.6,2-0.8,4-2.9,4l0,0c-1.7,0-3,1.4-3,3.1l0,0c0,2.1-2,3.5-4,2.9l0,0c-1.6-0.5-3.3,0.4-3.8,2l0,0
				c-0.7,2-3,2.7-4.7,1.5l0,0c-1.4-1-3.3-0.7-4.3,0.7l0,0c-1.2,1.7-3.7,1.7-4.9,0l0,0c-1-1.3-2.9-1.6-4.3-0.7l0,0
				c-1.7,1.2-4,0.4-4.7-1.5l0,0c-0.5-1.6-2.2-2.4-3.8-2l0,0c-2,0.6-4-0.8-4-2.9l0,0c0-1.7-1.4-3-3.1-3l0,0c-2.1,0-3.5-2-2.9-4l0,0
				c0.5-1.6-0.4-3.3-2-3.8l0,0c-2-0.7-2.7-3-1.5-4.7l0,0c1-1.4,0.7-3.3-0.7-4.3l0,0c-1.7-1.2-1.7-3.7,0-4.9l0,0
				c1.3-1,1.6-2.9,0.7-4.3l0,0c-1.2-1.7-0.4-4,1.5-4.7l0,0c1.6-0.5,2.4-2.2,2-3.8l0,0c-0.6-2,0.8-4,2.9-4l0,0c1.7,0,3-1.4,3-3.1l0,0
				c0-2.1,2-3.5,4-2.9l0,0c1.6,0.5,3.3-0.4,3.8-2l0,0c0.7-2,3-2.7,4.7-1.5l0,0c1.4,1,3.3,0.7,4.3-0.7l0,0
				C30.3,79.2,32.8,79.2,34,80.8z"/>
			<circle fill="#353635" cx="31.6" cy="110.2" r="17.7"/>
			<circle fill="#BDBEC0" cx="31.6" cy="110.2" r="13.7"/>
			<g>
				<circle fill="#424143" cx="31.6" cy="110.2" r="5.8"/>
			</g>
		</g>
		<path fill="#B12325" d="M3.7,92.1c1.1-1.9,2.3-3.7,3.7-5.3c1.4-1.7,3-3.2,4.8-4.5c3.5-2.7,7.5-4.6,11.8-5.8c2.1-0.6,4.3-0.9,6.5-1
			c2.2-0.1,4.4,0,6.6,0.3c4.4,0.7,8.6,2.2,12.3,4.5c3.7,2.3,7,5.4,9.5,9c2.5,3.6,4.3,7.7,5.2,11.9c0.9,4.2,0.9,8.6-0.1,12.8
			c0.3-4.2,0-8.5-1.2-12.5c-1.1-4-3.1-7.7-5.6-11c-2.5-3.2-5.6-6-9.1-8.1c-3.5-2.1-7.4-3.5-11.4-4.1c-4-0.6-8.2-0.5-12.1,0.5
			c-4,0.9-7.8,2.6-11.1,5c-3.4,2.4-6.3,5.3-8.6,8.8c-2.3,3.5-3.9,7.4-4.9,11.5C0.3,100.1,1.7,95.9,3.7,92.1z"/>
	</g>
	<line fill="none" stroke="#A11E22" stroke-width="0.3164" stroke-miterlimit="10" x1="87.4" y1="59.1" x2="87.5" y2="98.3"/>
	<path fill="none" stroke="#A11E22" stroke-width="0.3164" stroke-miterlimit="10" d="M111.2,59.1c-8.9,8.8-13.3,20.8-13.3,39.2"/>
	<polyline fill="none" stroke="#A11E22" stroke-width="0.3164" stroke-miterlimit="10" points="83.3,49.9 81,59.1 22.5,59.2 	"/>
</g>
</svg>
