<?xml version="1.0" encoding="utf-8"?>
<!-- Generator: Adobe Illustrator 18.1.1, SVG Export Plug-In . SVG Version: 6.00 Build 0)  -->
<svg version="1.1" id="Warstwa_1" xmlns="http://www.w3.org/2000/svg" xmlns:xlink="http://www.w3.org/1999/xlink" x="0px" y="0px"
	 viewBox="0 0 205.9 451.7" enable-background="new 0 0 205.9 451.7" xml:space="preserve">
<g>
	<g>
		<g>
			<g>
				<g>
					<path fill="#584F38" d="M122.2,366.3c0,0-0.1-24.1-0.3-29.8c-0.1-2.6,0-7.7,0.3-12.4c-3.1,0.8-17-4.8-20-3.5
						c-4.7,4.1-8.8-0.3-13,4.2c0,0,0,0.1,0,0.1c0,0-0.6,30.2-0.8,35.6c-0.2,5.3-0.5,14.1-2.5,17.9c-2,3.8-5.5,11.3-5.5,11.3
						s-0.1,14.9-0.4,25.2s-3.9,32-5.4,33.8c0,0,23.7,5.8,56.2,0.5c-9.3-9.9-12.4-33.8-13.6-45.3
						C115.7,390.5,122.2,366.3,122.2,366.3z"/>
				</g>
				<path fill="#746848" d="M89.1,324.7c0,0,0,0.1,0,0.1c0,0-0.6,30.2-0.8,35.6c-0.2,5.3-0.5,14.1-2.5,17.9
					c-2,3.8-5.5,11.3-5.5,11.3s-0.1,14.9-0.4,25.2c-0.4,10.3-3.9,32-5.4,33.8c0,0,16.3,4.3,30.4,2.7c-4.7-6.5-17.9-6.7-15.3-26
					c1.6-12.4-2-28.5,6.2-44.3c8-15.3,1.1-43.9,0.6-61.1C95.2,321.3,90.3,323.5,89.1,324.7z"/>
				<path fill="#93845C" d="M89.3,325.5c0.5,6.4,1.9,24.4-0.8,50.2c-1.1,10.1-1.2,17.1-3.8,29.4c0,0,14.4-34.8,7.6-82.7
					C91.3,323.4,90.3,324.5,89.3,325.5z"/>
			</g>
		</g>
		<path fill="#93845C" d="M83.2,389.7c3.2-4.4,5.2-8.7,5.2-8.7s-1.4,37.7-4.8,56.7C83.6,437.7,86,399.2,83.2,389.7z"/>
	</g>
	<g>
		<g>
			<path fill="#4A5B29" d="M79.9,121.2c-0.6-1.1,37.1,31.2,68.9,81.2c32.6,50.3,57.2,116.3,57.1,178.8c-0.3-0.2-25.1,4.3-44-21.6
				c0.1,0-7.4,19.5-21.7,41.6c0.2,0.3-21.9-14.1-25.2-29.4c-0.1,0-11.5,24.3-19.8,38.6c0.1,0.2-18.4-13.4-24.6-39.3
				c-0.1,0-12,22.4-23.2,28.1c-4.4-8-11.9-19.6-12.7-36.7c0-0.4-1.7,18.2-34.7,18.2c0.4,0.7,12-32.3,31.2-84.9
				C49.1,243.3,77.7,173.7,79.9,121.2z"/>
			<path fill="#557535" d="M79.9,121.2c-0.6-1.1,37.1,31.2,68.9,81.2c32.6,50.3,57.2,116.3,57.1,178.8c-0.2,0-24.2-1.9-43.6-28.3
				c0.1,0-6.3,16.1-20.8,38c0.2,0.3-22.1-12.6-25.5-27.9c-0.1,0-12,22.5-20.5,36.8c0.1,0.1-17.2-9.9-23.4-35.6
				c-0.1,0-11.2,19.2-22.7,25.3c-4.4-7.9-12.2-20.9-12.9-38.2c-0.1-0.2-13.6,18.3-31.8,17.3c0.5,0.2,12-34.9,28.4-81.5
				C48.6,240.8,75.8,184,79.9,121.2z"/>
			<path fill="#6B8F3C" d="M79.9,121.2c-0.6-1.1,37.1,31.2,68.9,81.2c32.6,50.3,57.2,116.3,57.1,178.8c-0.2,0.1-23.6-8-43.3-34.8
				c0.1,0-5.5,16-20.3,37.8c0.3,0.4-21.8-24.9-25.5-40.4c-0.1,0-12.4,27.7-21.1,42.1c0.1,0.1-14.9-12.4-21.2-38.1
				c-0.1,0-10.1,18.8-22.1,25C74,315.4,74.1,249.1,79.9,121.2z"/>
			<path fill="#7B9F3E" d="M79.9,121.2c-0.6-1.1,37.1,31.2,68.9,81.2c32.6,50.3,57.2,116.3,57.1,178.8c0,0.2-10.7-6.2-19.2-16.3
				c-7.1-8.4-11.1-19.4-20.4-31.9c0.1,0-7.2,16-22.4,37.6c0.3,0.3-11-10.4-18.7-24.4c-4-7.4-5.8-18.1-7.1-23.5
				c-0.2,0-12.4,29.3-19,38.5c-5.4-10-13.4-14.2-16.7-23.3c-4.6-12.7-3.3-30.3-2.5-45.3c0.3-5.2,5.7-12.1,6.2-17.7
				C88.4,240.9,95.6,196,79.9,121.2z"/>
		</g>
		<path fill="#557535" d="M92.4,72.5c-0.2-0.5,22.4,16.4,45.6,51.5c23.4,34.8,43.7,79.8,53.5,140.4c-0.1,0.2-17.7,6.1-32.8-10.6
			c0,0-4,15.5-14.3,32.7c0.1,0.2-20.4-12.6-23.5-24.8c0,0-8.3,17.1-15.1,26.9c0,0.1-17.1-8.6-21.8-28.1c-0.1,0.1-8.7,18.2-18.1,20.6
			c-3.4-6.2-8.9-20.8-8.9-32.7c0-0.3-16.3-10.5-0.4-46.6C72.1,166.3,91.4,112.2,92.4,72.5z"/>
		<g>
			<path fill="#4A5B29" d="M92.6,66.8c-0.2-0.5,22.4,16.4,45.6,51.5c23.4,34.8,47.6,89.9,57.4,150.4c-0.1,0.2-20.5,2.5-37.9-20.7
				c0-0.1-4,17-14.4,34.1c0.1,0.2-19.2-14-22.3-26.2c0,0-8.4,18.5-15.1,28.3c0,0.1-15.8-12.8-20.5-32.3c-0.1,0.1-9.8,15.3-19.2,17.8
				c-3.4-6.2-9.1-15.2-9.1-27.1c0-0.3-2,12.6-28.4,8.6c0.2,0.4,12-19.1,28-55.2C72.3,160.7,91.6,106.6,92.6,66.8z"/>
			<path fill="#557535" d="M92.6,66.8c-0.2-0.5,22.4,16.4,45.6,51.5c23.4,34.8,47.6,89.9,57.4,150.4c0,0.2-20.5-3.3-38.2-26.5
				c0-0.1-3.3,14.1-13.8,31.4c0.1,0.2-19.1-12.4-22.2-24.6c0,0.1-8.7,17.2-15.6,27.1c0,0.1-14.5-9.7-19.3-29.1c0,0-9,13.2-18.6,16.1
				c-3.5-6.2-9.2-16-9.1-28.1c0-0.1-12.3,13.4-26.6,10.7c0.3,0.1,13.2-24.9,26.7-57.2C72.2,156.8,90.3,114.5,92.6,66.8z"/>
			<path fill="#6B8F3C" d="M92.6,66.8c-0.2-0.5,22.4,16.4,45.6,51.5c23.4,34.8,47.6,89.9,57.4,150.4c0,0.2-20.8-8.9-38.5-32.1
				c0-0.1-2.8,14-13.3,31.4c0.1,0.1-19.3-22.2-22.5-34.3c0,0.1-8.6,21.5-15.6,31.6c0.1,0.1-12.5-11.1-17.2-30.4
				c0,0-7.9,13.3-17.7,16.5C89.1,212.2,88.6,162.1,92.6,66.8z"/>
			<path fill="#7B9F3E" d="M92.6,66.8c-0.2-0.5,22.4,16.4,45.6,51.5c23.4,34.8,47.6,89.9,57.4,150.4c0,0.2-10.3-7.7-21.5-21
				c-5.3-6.3-9.4-15.2-15.2-22.6c0-0.1-4,14.2-14.6,31.7c0.1,0-5.8-4.3-10.7-11.9c-1.7-2.7-1.8-7.2-3.5-10.1
				c-3.8-6.6-7.3-13.2-8.5-17.6c-0.1,0.1-8.5,23-13.6,29.5c-4.3-7.7-9.6-8.8-12.2-14.7c-3.5-8.2-3.5-20.8-3.1-31.3
				c0.1-4.7,4-14.6,4.4-19.9C98.8,155.5,102.6,120,92.6,66.8z"/>
		</g>
		<path fill="#557535" d="M99.4,30.9c-0.2-0.5,13.8,19.3,29.1,43.5c15.4,24.7,31.9,48.1,39.1,77.2c0-0.1-10.3,3.9-22.1-7.2
			c0,0-3.7,15.6-12.6,28.3c-0.1,0.1-13.1-4.7-15.1-12.5c0,0-3.4,12-10.5,21.6c-0.1,0.1-10.8-1.8-14.6-13.1c0-0.1-5.6,17.1-12.3,23.2
			c-2.3-4.2-6.8-27.4-6.4-38.4c0,0-9.7-0.3,1.6-31.3C86.5,90.5,98.7,57,99.4,30.9z"/>
		<g>
			<path fill="#4A5B29" d="M99.2,25.3c-0.2-0.5,13.8,19.3,29.1,43.5c15.4,24.7,31.7,53.8,39,82.9c0-0.1-13.3,4.2-25.2-6.9
				c0,0-2.5,9.9-9.4,22.4c0,0.2-13.1-4.7-15.1-12.5c0,0-5.6,13.7-10.4,23c0,0.1-10.8-4.5-13.8-18.9c0-0.1-6.9,14.4-13.7,20.5
				c-2.3-4.2-5.9-10.5-5.5-21.5c0,0-1.6,11.1-20.4,18.7c0.1,0.3,10.2-28.8,21.4-59.8C86.3,84.9,98.5,51.4,99.2,25.3z"/>
			<path fill="#557535" d="M99.2,25.3c-0.2-0.5,13.8,19.3,29.1,43.5c15.4,24.7,32,53.7,39.3,82.8c0,0-13.2-1.9-25.2-13.5
				c0,0-2.6,11.4-9.6,23.8c0.1,0.2-13.1-6.8-15.2-14.6c0-0.1-5.7,15.4-10.5,24.5c0,0.1-10.9-6.7-13.8-21.1c0-0.1-5.4,13.8-12.2,19.7
				c-2.3-4.2-6-12.7-5.5-23.6c0,0-4.9,13.8-18,19.5c0.1,0.3,7.2-24.1,16.7-51.5C83.6,87,97.8,56.3,99.2,25.3z"/>
			<path fill="#6B8F3C" d="M99.2,25.3c-0.2-0.5,13.8,19.3,29.1,43.5c15.4,24.7,32,53.7,39.3,82.8c0,0-13.2-1.9-25.2-13.5
				c0,0-2.5,8.1-9.5,20.3c0.1,0.3-13.1-10.5-15.2-18.5c0-0.1-5.8,15.2-10.6,24.2c0,0.1-11-7-13.9-21.5c0-0.1-5.4,13.6-12.3,19.3
				C90.8,136.5,96.6,88.3,99.2,25.3z"/>
			<path fill="#7B9F3E" d="M99.2,25.3c-0.2-0.5,13.8,19.3,29.1,43.5c15.4,24.7,32,53.7,39.3,82.8c0,0.1-12.8-7.9-24.9-20
				c0,0-2.5,8-9.6,20c0,0.2-7.6-3-11.7-8.6c-3.1-4.2-2.6-10.4-3.6-13.9c0-0.1-5.6,15.7-9.1,21.4c-2-3.4-7.6-6.8-9.7-10
				c-3.2-5-2.6-9.8-2.9-14.9C94.9,104.6,107.7,79.5,99.2,25.3z"/>
		</g>
		<path fill="#557535" d="M97.3,5.6c0,0,38.2,33.8,58.2,97.6c0,0-7.6,0.4-17.6-10.9c0,0-3.3,11.3-8,20.1c0,0-11.7-4.6-13.6-10.6
			c0,0-2.5,8.4-5.9,14.4c0,0-9.6-3.2-12.2-13.2c0,0-4.8,8.2-9.8,11.6c-1.8-2.9-4.9-12.8-4.8-19.9c0,0,0,2.2-14.6,12.9
			C69.1,107.7,99.1,45.9,97.3,5.6z"/>
		<g>
			<path fill="#4A5B29" d="M97.1,0c0,0,38.3,39.5,58.3,103.3c0,0-11.1-0.7-21.1-12c0,0-1.1,8.2-5.8,17.1c0,0-10.6-6.1-12.5-12.1
				c0,0-3.6,9.9-7,15.9c0,0-8.5-4.7-11.1-14.7c0,0-4.8,9.6-9.7,13c-1.8-2.9-4.9-6.6-4.8-13.7c0,0-0.7,6.6-14.5,10.9
				C69.1,107.7,99,40.3,97.1,0z"/>
			<path fill="#557535" d="M97.1,0c0,0,38.3,39.5,58.3,103.3c0,0-11.4-6.3-21.4-17.6c0,0-1.1,9.6-5.7,18.5c0,0-10.6-7.5-12.5-13.5
				c0,0-3.5,11.3-6.9,17.3c0,0-8.6-6.1-11.2-16.1c0,0-3.6,9.5-8.6,12.9c-1.8-2.9-4.7-8.6-4.6-15.7c0,0-3.3,8.9-12.8,12.2
				C71.8,101.3,94.1,45.9,97.1,0z"/>
			<path fill="#6B8F3C" d="M97.1,0c0,0,38.3,39.5,58.3,103.3c0,0-11.4-6.3-21.4-17.6c0,0-1.2,6.8-5.8,15.7c0,0-10.8-10.4-12.7-16.3
				c0,0-3.5,11.3-6.9,17.3c0,0-8.6-6.1-11.2-16.1c0,0-3.6,9.5-8.6,12.9C95.7,82.6,98.4,48.2,97.1,0z"/>
			<path fill="#7B9F3E" d="M97.2,0c0,0,38.3,39.5,58.3,103.3c0,0-11.7-12-21.7-23.3c0,0-1.2,6.8-5.8,15.7c0,0-4.3-3.2-7.2-7.2
				c-3-4.1-4.7-8.9-5.6-11.9c0,0-3.4,12-5.8,15.8c-1.6-2.6-6.2-6.8-7.2-9.3C94.7,64.6,107.4,49,97.2,0z"/>
		</g>
	</g>
</g>
</svg>
