<?xml version="1.0" encoding="utf-8"?>
<!-- Generator: Adobe Illustrator 18.1.1, SVG Export Plug-In . SVG Version: 6.00 Build 0)  -->
<svg version="1.1" id="Warstwa_1" xmlns="http://www.w3.org/2000/svg" xmlns:xlink="http://www.w3.org/1999/xlink" x="0px" y="0px"
	 viewBox="0 0 269.5 451.7" enable-background="new 0 0 269.5 451.7" xml:space="preserve">
<g>
	<g>
		<g>
			<g>
				<g>
					<path fill="#584F38" d="M160.6,289.1c0,0-3.2,31.4-2,31c12.5-4.3,26.6-55.8,40.1-51.1c6.3,2.2-41.5,62.5-41.5,75.3
						c0,6.4,0,16.8,2.6,21.3c2.6,4.5,7.2,13.6,7.2,13.6s-0.7,17.7-0.7,30c0,12.3,3.9,38.1,5.9,40.4c0,0-21.6,5.9-67.3-1.8
						c13.7-11.4,20.3-39.5,21.6-53.1c1.3-13.6-1.3-24.5-10.5-30.9c-9.1-6.4-15-15-17-17.7c-2-2.7,0-28.6,0.7-35
						c0.7-6.4-3.9-19.1-3.9-19.1l7.8-4.1c0,0,5.2,16.8,6.5,22.3c1.3,5.4-3.3,15.9,0,24.5c3.3,8.6,13.1,15,13.1,15s1.3-28.6,2-35.4
						c0.7-6.8,0-27.2,0-27.2S158,275,160.6,289.1z"/>
				</g>
				<path fill="#746848" d="M127.3,370.4c-3.3-6.4-6.6-12.8-12.6-18.2c-8.8-7.9-14.4-13.6-14.5-24.1c-0.1-12.9,1.3-25.2-1.4-37.7
					l4.8-2.5c0,0,5.2,16.8,6.5,22.3c1.3,5.4-3.3,15.9,0,24.5c3.3,8.6,13.1,15,13.1,15s1.3-3,6.7,8.8
					C130.3,359.1,127.7,369.7,127.3,370.4z"/>
			</g>
			<g>
				<path fill="#746848" d="M105,447.8c11.4,1.9,21.3,3,29.7,3.5c-4.7-3.8-8-8.3-8.7-13.3c-1-8,5.2-15.2,7.4-22.9
					c2.3-8.3,2.8-16.5,6.2-24.6c2.4-5.9,4-10.9,0.6-16.9c-1.9-3.3-4.5-6.4-5.7-9.8c-2.9-8.2-0.9-16.9,0.5-25.2
					c2.4-14.4,3.7-31-1.7-45.6c-4.6-3.6-8-6-8-6s0.7,20.4,0,27.2c-0.7,6.8-2,35.4-2,35.4s5.7,16.5,3.3,45
					C125.4,408.3,118.7,436.4,105,447.8z"/>
			</g>
			<path fill="#93845C" d="M127,310.6c0,0-3.5,36,2.2,54.7c0,0,0.3-26.1,1.7-59.7C132.3,272.6,127,310.6,127,310.6z"/>
		</g>
		<path fill="#746848" d="M158.6,320.1c0,0,21.9-27.9,26.7-45.7c4.8-17.8,9.5-7.2,9.5-7.2s-15,26.9-16.1,30.3
			S163.1,323.1,158.6,320.1z"/>
	</g>
	<g>
		<path fill="#557535" d="M157.8,0c-4.4,0.2-23.6,14.4-41.7,30.2C98,46,82.6,69.8,88.7,68.4c5.2-1.2,8.3-2.8,8.3-2.8
			c0-0.1-30.5,32.6-53.9,72.6C12.7,189.7,4.7,231.5,4.4,241c-0.2,9.6,4.6,11.1,10.8,5.3C7.5,257.5-0.5,283.6,0,288.8
			c0.2,2.8,17.8-7,18.6-8.3c0.8-1.4-0.8,1.4-0.8,1.4c0,0-5.1,17.4-7.3,23c-2.3,5.6-2.8,10.4,4.3,8.2c7-2.2,17.3-10.1,17.3-10.1
			c0,0-0.9,14.3,6.4,16.1c4.5,0.9,39.2-13.7,55.2-31.5c0,0-9.5,17.1-4,20.2c5.4,3,34.6-4.9,43.6-12.1c9-7.4,13.6-11.8,13.6-11.8
			c0,0-2.9,14.9,0.6,17.4c3.5,2.4,26.7-0.7,36.9-8.1c10.2-7.5,15.2-16,15.2-16c0,0-1.7,15.1,9.1,15.4c10.7,0.4,27.8-11.4,29.5-30.6
			c4.6,11.4,5.8,17.6,15,17c9.2-0.6,14.6-8.1,16-22.1c1.5-14-7.7-61.2-22.1-92.2c9.2-3.6,6.5-28.5-1.4-45.3
			c-7.8-16.9-26.4-34.5-26.4-34.4c0,0,3.6-3.5,2-15.6c-1.3-11-18.7-39.2-29.5-47.6C176.2,9.4,166.6-0.3,157.8,0z"/>
		<path fill="#4A5B29" d="M178.7,206.6C178.7,206.6,178.7,206.6,178.7,206.6C178.7,206.5,178.7,206.5,178.7,206.6z"/>
		<path fill="#6B8F3C" d="M191.8,21.9C176.4,9.6,166.9,0,158.3,0c-40.2,29.2-41.5,56.5-46.4,59.1c8-4.1,19.3-10.7,24.2-17.4
			c-2.8,6.4-13,13.6-14.7,14.6c-1.7,1,0,2.8,3,2.5c3-0.3,13.4-2.5,19.7-8.5c6.3-6,15.4-13.6,15.4-13.6c0,0-10.1,12.5-11,13.8
			c-0.9,1.3,1.1,3.4,4.4,3c3.3-0.4,9.6-2.5,17.2-8.1c7.7-5.6,16-9.7,16-9.7c0,0,1.6,4.9,8,4.1c5.3-0.6,6.2-5.1,6.8-8.3
			C197.7,27.4,194.5,24.1,191.8,21.9z"/>
		<g>
			<path fill="#4A5B29" d="M185.7,36c-6.6,4.4-12.8,9-19.7,13.5c-2.5,1.6-5.6,3.7-10.3,4.6c-6,1.2-5.5-0.1-5.9-1.1
				c-0.4-1.3,0.5-3.1,0.8-3.5c4.2-4.3,6.4-9,9.1-12.8c0-0.1-0.2-0.1-0.2,0c-4.7,4.2-8.6,8.5-12.7,12.8c-1.9,2-3.8,4-7.2,5.8
				c-4.8,2.5-20.1,7.6-19.9,2c0-0.2,0.5-1.2,1.1-1.6c5.8-3.5,10-7.1,12.4-11c0.1-0.1-0.4-0.1-0.5,0c-3.9,3.9-9.4,7.6-16.3,11.2
				c-3.5,1.9-7.4,3.7-11.8,5.4c-1.8,0.7-3.6,1.4-5.5,2.1c-2.1,0.8-7,2.6-11.8,3.6c-0.1,1.1,0.3,1.6,1.3,1.4c5.2-1.2,8.3-2.8,8.3-2.8
				c0,0-0.3,0.3-0.8,0.9c1.2-0.4,2.4-0.8,3.5-1.2c6.1-2.2,11.3-4.4,15.9-6.7c1.1,3.8,7.3,4.1,17.9,0.8c5.6-1.8,9.8-3.9,13.1-6.3
				c-0.3,2.5,1.3,5.1,8.6,3.5c7.4-1.7,11.6-5.5,15.1-8c5.8-4.2,11.2-8.3,15.7-12.6C185.9,35.9,185.7,35.9,185.7,36z"/>
			<path fill="#4A5B29" d="M219.4,85.1c0,0,3.6-3.5,2-15.6c-0.1-1-0.4-2.2-0.8-3.4c-0.2,3.8-0.7,7.6-1.5,11.3
				c-0.9,4.1-2.1,8.1-4.9,11.9c-0.8,1-1.6,3.7-4.4,4.1c-1.6,0.2-2.8-1.2-3.8-2.7c1.9-5.8,1.1-11.9-1.3-17.9c-0.1-0.1-0.7-0.1-0.7,0
				c-0.7,4.3-0.6,8.7-1.2,13.1c-0.1,0.4-1.1,3-0.8,3.7c-0.5,1.7-1.2,3.4-2.2,5c-1.5,2.5-4.2,7.9-9.8,9.3c-6.8,1.7-9.5-2.5-12.5-5.1
				c2.5-6.3,1.7-12.8-3.4-18.6c0,0-0.2,0-0.2,0c-1.8,6.1,0.6,12.3-1.5,18.4c-2.1,6.2-6.6,10.9-15,16.2c-0.6,0.4-2.4,1.5-4,0.7
				c-4-1.9-6.5-3.5-10.1-5.5c-0.1-0.1-0.4-0.6-0.4-0.9c-0.1-5.1-2.6-10.3-5.8-15.1c-0.1-0.1-0.7-0.1-0.7,0
				c1.9,7.6,5.3,15.5,0.4,23.2c-1.2,1.8-2.8,3.6-4.9,5.4c-1.1,1-2.4,2-3.9,2.9c-2.8,1.2-5.2,1.7-8.2,1.1c-6.2-1.9-12.3-5.8-15.3-9.5
				c-0.1-0.2-1.3-0.2-1.3,0.1c-0.1,5.3,9,9.3,20.4,12.1c1,0.2,2.3,0,2.9-0.3c10.8-5.2,15.3-11,16.3-17c2.2,2.5,6.4,4.7,10.8,6.9
				c0.9,0.4,2.6,0.5,3.5,0.1c9-4.9,15.7-10.9,19.2-17.3c1.9,2.2,5.3,4.4,9.8,5.7c0.8,0.2,1.9,0.2,2.6,0c10.5-2.5,14.5-10,16.5-14.4
				c1.1,0.8,2.3,1.5,3.7,2.3c0.7,0.4,2.1,0.5,2.6,0.1c3.8-3.2,6.4-6.5,8.2-9.9C219.4,85.2,219.4,85.1,219.4,85.1z"/>
			<path fill="#4A5B29" d="M247.2,164.8c3.1-1.2,4.8-4.7,5.5-9.5c-1.2,1.5-2.6,2.9-4.1,4c-4.4,3-5.3,3.2-6.8,1.4
				c-1.5-1.8-5.2-19.9-10.4-30.3c2.7,9.8-0.8,23.4-1.2,28.6c-0.4,5.1-10.7,11-14,10c-3.2-1.1-10.1-11.8-10-13.6
				c0.1-1.8,3.8-8.7-1.7-15.2c-1.3,9.5-1.9,20.3-12.3,29.4c-10.3,9.2-17,15.7-24.4,16.7c-7.3,0.9-14.5-4.7-17.7-13.6
				c3.4-6.3,4.4-13.9,4.4-17.4c-5.2,9.5-14.4,24.6-16.9,29.2c-2.5,4.6-17.1,17.5-22.7,20c-3.2,1.4-0.1-6.9,0.7-10.3
				c-4.8,3.4-7.2,6.9-8,8.3c-0.8,1.4-4.9-3.1-4.9-3.1c-0.1,0,15.2-18.9,11.1-29.5c-4.1,9.8-14.5,25-23.1,33.1
				c-8.7,8.1-26.7,20.1-31.4,20.4c-4.8,0.3-6.7-6.2-6.8-7.5c4.4-8.9,6.3-20.7,2-25.8c0.4,9.4-9.1,28.6-12.1,32.7
				C39.9,226.4,22,244.5,6,248.2c1.9,2.5,5.3,1.9,9.2-1.9c-0.6,0.8-1.2,1.8-1.7,2.8c2.7-0.8,5-2,7.5-3.6c6-3.9,24.3-17.3,28-23.9
				c1.2,7.9,7.6,8.2,16.9,3.6c9.3-4.7,32.9-24.2,33-24.1c0,0,1.7,3.6,6.5,3.9c0.9,4.5,3.3,5.7,7.3,4.6c3.9-1.2,32.9-16.5,35.8-33.5
				c2.2,15.5,16.6,14.8,23.4,13.7c12.2-2,30.1-16.2,30.7-26.7c3.7,7.9,5.3,9.6,10.1,11.1c4.8,1.5,23.5-5.3,22-19.3
				c4.3,9.5,4.9,11.8,7.5,11.3c0.9-0.2,2.9-0.5,5.3-1C247.3,165.1,247.3,165,247.2,164.8z"/>
		</g>
		<path fill="#6B8F3C" d="M221.6,72c-0.1-0.8-0.1-1.6-0.3-2.5c-1.1-8.8-12.6-29-22.7-40.8c-3.3,0.8-6.4,5.3-8,7.7
			c-1.9,2.9-4.5-0.8-4.5-0.8c0,0-11.5,13.2-15.9,16.9c-7.6,6.5-18.9,9.2-23.3,8.5c-4.3-0.7-2.6-3.8-2.6-3.8c0,0-16.1,8.8-21.3,5.8
			c-0.2,0-20.4,39.1-18.4,47.7c1.8,8.6,15.6,16.3,19.8,15.1c4.2-1.2,11.3-6.7,12.6-15.1c1.3-8.4-1.6-18.5-1.6-18.5c0,0,8,6,8.8,11.4
			c0.8,5.4,4.1,7.3,7,9.2c2.9,1.9,5,1.2,9.3-2.5c4.3-3.7,9.9-9.3,10.6-17.3c0.7-8,1.8-17.6,1.8-17.6c0,0,5.1,14.5,3.7,19
			c-1.4,4.4,6.9,8.8,9.9,8.4c3-0.4,9-2.3,12-10.9c3-8.6,5-23.7,5-23.7c0,0,3.3,12.9,2.2,15.9c-1,3,1.8,7.1,3.5,7.8
			c1.7,0.7,5.2-3.7,7.6-5.2C218.8,85.5,221,79.1,221.6,72z"/>
		<path fill="#6B8F3C" d="M252.4,156.5c1.8-9.6-1.2-25.3-6.6-37c-5.3-11.4-15.5-23.3-21.6-29.6c-0.4,0.2-0.6,0.3-0.6,0.3
			c0,0-8.5,9.1-13.7,10.9c-3.5,1.2-4.1-3.6-4.1-3.6c0,0-7.5,11.5-13.6,14.1c-6.1,2.6-12.8-1.3-13.6-2.8c-0.8-1.5-9.8,10.8-17.5,14.1
			c-7.7,3.3-16.9-4.3-16.9-4.3c0,0-12,13-22.1,15.5c-10.1,2.5-19-8.8-19-8.8c-0.2,0-28.1,43.5-31.6,91.4
			c-0.1-0.1,34.1-27.7,40.7-51.4c0.9,8.3-3.8,29.2-5.4,31.7c-1.6,2.6,7.2-5.5,8.8-9.2c0.9,7.4-2.3,14.6,1.7,12.6
			c3.8-2,32.6-36.5,37.3-53.1c-1.9,11.1-7.9,24.6-7.9,24.5c0,0,10.4,12.9,17.8,11.4c7.3-1.7,35.8-17.5,40.8-45.3
			c0.8,16.3,5,21.2,11.8,27.3c3.9,3.5,13.4-2.4,14.1-11.2c0.6-8.8,0.7-21-1.5-26.8c7,10.3,13.4,25.4,13.1,28.8
			C242.7,158.6,248.4,159.6,252.4,156.5z"/>
		<path fill="#6B8F3C" d="M248.5,167.8c0.3,2.9-5.4,6.6-7.7,6.9c-5.9,0.9-2.6-10.5-2.6-10.5c0,0-5.5,6.5-12.4,11.3
			c-6.9,4.8-13.4,3.6-20.5-2.7c-6.3,8-28.8,20-36.9,23c-8.2,2.9-14.5-0.1-17.7-9.1c-10,10.8-30.9,22.6-38,25.5
			c-7.2,2.8-10.4,2.3-11.2-1.1c-2.4,1.1-4.9-3.3-4.9-3.3c-3.1,3.4-6.3,6.7-9.4,10.1c4.2,6.9,7.1,31.2,10.2,33.5
			c3.2,2.3,7.8-1.3,13.2-8.6c5.4-7.3,5.3-16.7,11.7-32.6c0.1,14.9,6.4,28.1,11.9,27c5.5-1.1,13.5-10.2,16-15.9
			c2.5-5.7,6.8-22.9,6.9-23c0,0,3.9,7,3.8,10.5c-0.1,3.5,1.3,11.9,6.2,9.4c4.9-2.5,7.6-13.2,13.5-24.4c-0.5,7.2-0.8,12.4,7,11.6
			c7.8-0.8,15.8-9.5,16.3-18.8c6.9,20.5-20.1,31.4-22.2,26.8c-1.8,3.4-10.1,14.4-14.9,16.9c-4.8,2.5-8.6-2.8-8.6-2.8
			c0,0-9.7,11.5-14.4,15.2c-4.8,3.7-15.7,9.9-19.6,4c-3.9,5.3-12.4,14-19.4,11.6c0,1.4-0.4,25.8,0.4,29c0.8,3.1,7.7,11.2,18.3,6.2
			c10.5-4.9,27.5-22.2,28.6-33.2c9.1,10.3,2.4,32.5,4.6,34.8c2.2,2.3,19-5.7,27.6-10.6c8.6-4.9,11.7-20.9,13.9-33
			c6.7,7,11.3,33.2,15.1,32.2c3.9-1,8.9-7.7,13.9-12.5c5-4.8,3.2-11.1,2.2-19.3c-1-8.2-0.7-12.2,8.1-13.2
			c3.3,18.9,15,34.3,18.3,32.6c2.5-1.3,10-12.9,13.8-21C268.6,232.3,260.4,194.9,248.5,167.8z"/>
		<path fill="#4A5B29" d="M219.4,85.1c0,0,3.6-3.5,2-15.6c-0.1-1-0.4-2.2-0.8-3.4c-0.2,3.8-0.7,7.6-1.5,11.3
			c-0.9,4.1-2.1,8.1-4.9,11.9c-0.8,1-1.6,3.7-4.4,4.1c-1.6,0.2-2.8-1.2-3.8-2.7c1.9-5.8,1.1-11.9-1.3-17.9c-0.1-0.1-0.7-0.1-0.7,0
			c-0.7,4.3-0.6,8.7-1.2,13.1c-0.1,0.4-1.1,3-0.8,3.7c-0.5,1.7-1.2,3.4-2.2,5c-1.5,2.5-4.2,7.9-9.8,9.3c-6.8,1.7-9.5-2.5-12.5-5.1
			c2.5-6.3,1.7-12.8-3.4-18.6c0,0-0.2,0-0.2,0c-1.8,6.1,0.6,12.3-1.5,18.4c-2.1,6.2-6.6,10.9-15,16.2c-0.6,0.4-2.4,1.5-4,0.7
			c-4-1.9-6.5-3.5-10.1-5.5c-0.1-0.1-0.4-0.6-0.4-0.9c-0.1-5.1-2.6-10.3-5.8-15.1c-0.1-0.1-0.7-0.1-0.7,0c1.9,7.6,5.3,15.5,0.4,23.2
			c-1.2,1.8-2.8,3.6-4.9,5.4c-1.1,1-2.4,2-3.9,2.9c-2.8,1.2-5.2,1.7-8.2,1.1c-6.2-1.9-12.3-5.8-15.3-9.5c-0.1-0.2-1.3-0.2-1.3,0.1
			c-0.1,5.3,9,9.3,20.4,12.1c1,0.2,2.3,0,2.9-0.3c10.8-5.2,15.3-11,16.3-17c2.2,2.5,6.4,4.7,10.8,6.9c0.9,0.4,2.6,0.5,3.5,0.1
			c9-4.9,15.7-10.9,19.2-17.3c1.9,2.2,5.3,4.4,9.8,5.7c0.8,0.2,1.9,0.2,2.6,0c10.5-2.5,14.5-10,16.5-14.4c1.1,0.8,2.3,1.5,3.7,2.3
			c0.7,0.4,2.1,0.5,2.6,0.1c3.8-3.2,6.4-6.5,8.2-9.9C219.4,85.2,219.4,85.1,219.4,85.1z"/>
		<path fill="#4A5B29" d="M247.2,164.8c3.1-1.2,4.8-4.7,5.5-9.5c-1.2,1.5-2.6,2.9-4.1,4c-4.4,3-5.3,3.2-6.8,1.4
			c-1.5-1.8-5.2-19.9-10.4-30.3c2.7,9.8-0.8,23.4-1.2,28.6c-0.4,5.1-10.7,11-14,10c-3.2-1.1-10.1-11.8-10-13.6
			c0.1-1.8,3.8-8.7-1.7-15.2c-1.3,9.5-1.9,20.3-12.3,29.4c-10.3,9.2-17,15.7-24.4,16.7c-7.3,0.9-14.5-4.7-17.7-13.6
			c3.4-6.3,4.4-13.9,4.4-17.4c-5.2,9.5-14.4,24.6-16.9,29.2c-2.5,4.6-17.1,17.5-22.7,20c-3.2,1.4-0.1-6.9,0.7-10.3
			c-4.8,3.4-7.2,6.9-8,8.3c-0.8,1.4-4.9-3.1-4.9-3.1c-0.1,0,15.2-18.9,11.1-29.5c-4.1,9.8-14.5,25-23.1,33.1
			c-8.7,8.1-26.7,20.1-31.4,20.4c-4.8,0.3-6.7-6.2-6.8-7.5c4.4-8.9,6.3-20.7,2-25.8c0.4,9.4-9.1,28.6-12.1,32.7
			C39.9,226.4,22,244.5,6,248.2c1.9,2.5,5.3,1.9,9.2-1.9c-0.6,0.8-1.2,1.8-1.7,2.8c2.7-0.8,5-2,7.5-3.6c6-3.9,24.3-17.3,28-23.9
			c1.2,7.9,7.6,8.2,16.9,3.6c9.3-4.7,32.9-24.2,33-24.1c0,0,1.7,3.6,6.5,3.9c0.9,4.5,3.3,5.7,7.3,4.6c3.9-1.2,32.9-16.5,35.8-33.5
			c2.2,15.5,16.6,14.8,23.4,13.7c12.2-2,30.1-16.2,30.7-26.7c3.7,7.9,5.3,9.6,10.1,11.1c4.8,1.5,23.5-5.3,22-19.3
			c4.3,9.5,4.9,11.8,7.5,11.3c0.9-0.2,2.9-0.5,5.3-1C247.3,165.1,247.3,165,247.2,164.8z"/>
		<path fill="#4A5B29" d="M269.2,257.5c-3,4.9-6.1,9.8-9.1,14.7c-1.7,2.8-4.5,5.8-11.8,5c-8.6-11.9-13.6-23.1-14.4-33.6
			c-7.3,5.4,0.9,14.7,0.8,22.1c0,2.6-1,4.9-2.4,7.2c-4.5,7.1-12.9,13-24.5,17.4c-9.6-11.1-2.9-20.9-11.2-31.8
			c3.8,17.7-10.4,32.5-37.5,41.5c-1.3,0.5-3.3,0.6-5.4,0.3c-2.9-0.5-3.8-1.5-4.3-2.4c-1.2-2.1-1.2-4.1-0.4-6
			c3.4-7.9,4.1-16.4,1.9-25c-1.3,15.5-18.7,28.5-46.9,37.5c-2.2,0.7-5.3,1.4-8.2,0.5c-1.7-0.5-2.4-1.3-2.2-2.1
			c2.4-9.7,2-19.8-1.4-29.6c1.5,7.9-4.3,15.6-13.1,22.5c-8.9,6.9-20.8,13.3-32.5,19.9c-1.5,0.9-4,1.8-6.5,1.5
			c-1.9-0.2-2.4-1-2.7-1.8c-2.9-7.8,2.5-16.1-1.5-23.8c-0.6,6.6-6.1,12.2-17.4,17.8c-1.8,0.9-5.4,0.9-6,0c-0.9-1.2,0.4-3.1,0.7-4.3
			c0.9-2.9,1.7-5.4,2.7-8.3c0.9-2.7,1.9-5.4,2.6-8c0.4-1.3,0.7-2.7,1-4c0.2-1-0.8-3.1,0.5-4c2.1-1.5,3.8-2.8,4.6-3.5
			c9.6-7.7,18.3-16.5,22.1-24.9c-1.1,3.9-1.8,7.7-2.3,11.6c-0.6,3.7-1.7,7.2,3.4,10.3c0.6,0.4,2.5,0.4,3.3,0
			c16-7.8,27.1-17,32.7-26.7c1.5,3.9,4.2,7.9,6.1,11.8c0.3,0.6,2.3,0.8,3.5,0.5c16.2-3.3,23.4-9.2,25.7-15.9c0.4-1.1,0.7-2.3,1-3.4
			c1.2,1.6,3.1,3,6,3.7c7.3,1.6,13.2-3,15.8-4.6c7.6-4.5,11.5-9.8,13.3-15.4c0.5,0.5,1.1,1,1.7,1.5c0.9,0.7,3.4,0.8,4.4,0.4
			c9.1-4,13.7-9.6,15.1-15.3c0.4,1.3,5.1,2.2,8,1.9c1.3-0.1,2.3-0.4,3.1-0.8c8.2-3.5,12.4-8.2,13.3-13.5c0.2-1.3,0.5-2.6,0.7-4
			c-3.7,5.5-8.8,10.8-16.7,15.3c-0.3,0.2-0.8,0.4-1.5,0.3c-0.4-0.1-0.7-0.2-1-0.3c-4.7-2.4-6-5.3-5.6-7.8c0.4-2.5,2.2-4.9,2.5-7.5
			c-3.1,4.9-3.8,10.2-5.8,15.3c-1.9,4.7-3.5,10.8-13.6,13.5c-0.8,0.2-3.6-4.4-3.7-4.7c-0.3-1.7,0.2-3.4,0.4-5.1c0.3-4,0-8-1.1-12.1
			c-1.6,8.9-1.5,18.2-6.3,26.7c-2.3,4-6.1,7.9-12.4,11.1c-1.6,0.8-3.2,1.6-5,2.3c-1.5,0.6-4.3,0.2-5.1-0.6c-2.3-2.7-3.1-5.4-5.2-8
			c-0.1-0.1-0.3-0.2-0.5-0.2c0.2-6.4-0.6-12.9-0.9-19.2c0-0.1-0.2-0.1-0.3,0c-1.5,7.9-2.5,15.7-3.4,23.6c-0.8,7.2-3.3,14.8-18,19.4
			c-1.9,0.6-5,0.2-5.4-0.7c-1.7-4.3-3.4-8.7-7.1-12.7c2.6-6.5,2.6-13.2-0.2-19.4c-0.1-0.3-1.4-0.2-1.5,0.1
			c-2.4,8.8-2.4,17.3-8.3,25.9c-5.2,7.5-13.2,14.8-24.6,21.6c-0.7,0.4-2.4,0.4-2.8,0c-2.6-3.2-1-7-0.8-10.3c0.3-3.8,0.3-7.5,0-11.2
			c0,0-0.1-0.1-0.2-0.1c0.5-1.5,0.8-3,0.9-4.4c0-0.3-1.3-0.3-1.5,0c-4.9,7.2-8,14-15.5,21.1c-3.6,3.5-7.8,6.8-12.3,10.2
			c-2.1,1.6-10.7,9.4-19.5,11.3c0,0.1,0,0.2,0,0.3c0,0.1,0,0.2,0,0.3v0c0,0.2,0,0.4,0,0.5c0,0.2,0.1,0.3,0.2,0.4
			c0.1,0.1,0.2,0.1,0.4,0.1c0,0,0.1,0,0.1,0c0.3,0,0.8,0,1.3-0.2l0,0l0,0c0.2-0.1,0.4-0.1,0.7-0.2c0,0,0,0,0.1,0
			c0.2-0.1,0.5-0.2,0.8-0.3l0,0c0,0,0,0,0,0c0.4-0.2,0.9-0.3,1.3-0.5c0,0,0,0,0,0c0.5-0.2,1-0.4,1.5-0.6c0,0,0,0,0,0c0,0,0,0,0,0
			c1.7-0.8,3.5-1.7,5.2-2.6l0,0c0.6-0.3,1.1-0.6,1.6-0.9c0,0,0,0,0,0l0,0c0.5-0.3,1-0.5,1.4-0.8c0,0,0,0,0.1,0
			c0.4-0.3,0.9-0.5,1.3-0.7c0,0,0,0,0,0c0.8-0.5,1.5-0.9,1.9-1.2l0,0c0,0,0,0,0,0c0.2-0.1,0.3-0.2,0.4-0.3l0,0v0
			c0.2-0.1,0.3-0.2,0.3-0.3c-0.1,0.1-0.1,0.2-0.2,0.3c0,0.1-0.1,0.1-0.1,0.2c-0.1,0.2-0.2,0.3-0.3,0.5c-0.1,0.1-0.1,0.2-0.2,0.3
			c0,0.1-0.1,0.1-0.1,0.1v0v0c-5.2,8.2-6.2,16.4-9.2,24.4c-0.2,0.7-0.4,2-0.5,2.7c-0.2,1.1-2.5,3.9,0.6,4.8
			c8.3,2.3,19.9-7.9,23.7-11.8c0,0,0.1-0.1,0.1-0.1c0.1-0.1,0.2-0.2,0.3-0.3c0,0,0.1-0.1,0.1-0.1c0.1-0.1,0.2-0.2,0.2-0.3
			c0,0,0.1-0.1,0.1-0.1c0.1-0.1,0.2-0.2,0.2-0.3c-0.3,1-0.5,2.1-0.7,3.1c0,0.2-0.1,0.3-0.1,0.5c-0.1,1-0.2,2.1-0.2,3.1
			c0,0.1,0,0.2,0,0.2c0,2.2,0.4,4.4,1.1,6.6l0,0l0,0c0.3,0.9,0.6,1.9,1,2.8c0.4,0.8,1.7,1.6,3.9,1.9c4.4,0.7,8.4-0.8,11-2.2
			c4.2-2.2,8.2-4.4,12-6.6c1.7-1,3.3-1.9,4.9-2.9c0.5-0.3,1.1-0.6,1.6-1c1.1-0.7,2.3-1.4,3.4-2.1c0.5-0.3,1-0.7,1.5-1
			c1.4-0.9,2.9-1.9,4.2-2.8c0.1-0.1,0.2-0.1,0.3-0.2c1.5-1,2.9-2,4.3-3.1c0.4-0.3,0.8-0.6,1.3-0.9c1-0.8,2-1.5,3-2.3
			c0.4-0.3,0.8-0.6,1.2-0.9c1.3-1.1,2.6-2.1,3.9-3.2c-0.7,3.3-1.4,6.5-1.9,9.8c-0.4,2-0.7,4-1,6.1c0,0.2,0,0.3,0,0.5
			c0,0.2,0.1,0.4,0.3,0.7l0,0l0,0c0.1,0.2,0.3,0.3,0.4,0.5c0.2,0.2,0.4,0.3,0.7,0.5c4.1,2.3,11.5,1.1,15.8-0.3
			c3.7-1.2,7.1-2.4,10.4-3.7l0,0l0,0c1.4-0.5,2.8-1.1,4.2-1.7c0.3-0.1,0.5-0.2,0.8-0.3c1.3-0.5,2.5-1.1,3.7-1.6
			c0.2-0.1,0.5-0.2,0.7-0.3c8.1-3.7,14.8-7.9,20-12.4c-1.3,4.3-1.5,8.8-0.7,13.4c0.1,0.4,0.2,0.9,0.8,1.3c1,0.6,2.9,0.8,4.5,0.9
			c7.5,0.4,13.2-1.1,17.9-2.8c2.5-0.9,4.8-1.8,7.1-2.8c0.4-0.2,0.8-0.4,1.2-0.5c2.9-1.3,5.6-2.8,8.1-4.3c0.1-0.1,0.3-0.2,0.4-0.3
			c4.9-3.1,8.7-6.5,11.5-10.2l0,0c0.5-0.7,1-1.4,1.4-2.1c-0.1,3.2,1.7,6.6,5.2,10.1c0.4,0.4,0.9,0.9,1.4,1.3
			c0.1,0.1,0.2,0.2,0.3,0.3l0,0c0.9,0.7,2.1,1.5,3.7,1.7c1.1,0.1,1.9-0.1,2.6-0.3c0.5-0.2,1-0.4,1.5-0.6l0,0c0,0,0,0,0,0
			c2.5-1,4.9-2,7.1-3.1c0,0,0.1,0,0.1-0.1c2.2-1.1,4.2-2.3,6.1-3.5l0,0v0c6.4-4.3,10.8-9.5,12.6-15.4c0.7,2.3,2.9,4.9,6.2,7.4
			c2.1,1.6,4.8,3.2,9.3,3.4c2.6,0.1,4.5-0.4,5.5-1.2c1.2-1,4.4-4,6.6-10c0,0,0,0,0,0C267.6,266.7,268.7,262.5,269.2,257.5z"/>
		<path fill="#7B9F3E" d="M186.9,98.4c3-0.4,5.4,0.4,8.3-8.2c2.9-8.6,8.5-22.1,8.5-22.1c0,0,3.3,12.9,2.2,15.9c-1,3,1.8,7.1,3.5,7.8
			c1.7,0.7,5.2-3.7,7.6-5.2c1.8-1.1,4.1-7.5,4.7-14.6c-0.1-0.8-0.1-1.6-0.3-2.5c-1.1-8.8-12.6-29-22.7-40.8c-3.3,0.8-6.4,5.3-8,7.7
			c-1.9,2.9-4.5-0.8-4.5-0.8c0,0-11.5,13.2-15.9,16.9c-7.6,6.5-18.9,9.2-23.3,8.5c-4.3-0.7-2.6-3.8-2.6-3.8c0,0-0.3,0.2-0.8,0.4
			c0.1,0.5,0.2,0.9,0.3,1.3c-0.9-0.1-1.7-0.1-2.6-0.2c-1.3,0.6-2.9,1.3-4.6,2c-1.6,7.9-19.7,27.8-14.4,46.2c0.3-1,4.1,5,4.2,3.9
			c1.2-8.4,8.8-18.7,8.8-18.7c0,0,8.1,0.3,8.9,5.7c0.8,5.4,4.1,8.7,7,10.6c2.9,1.9,5.1-0.2,9.4-3.9c4.3-3.7,9.8-3.6,10.5-11.5
			c0.7-8,1.8-17.6,1.8-17.6c0,0,8.9,8.8,7.4,13.3C179.1,93.1,183.9,98.8,186.9,98.4z"/>
		<path fill="#7B9F3E" d="M194.1,39.7c5.3-0.6,6.2-5.1,6.8-8.3c-3.2-4-6.4-7.4-9.1-9.6C179,11.6,170.2,3.3,162.6,0.8
			c-6.3,6-16.9,34.3-18.8,49.7c0.1-0.1,0.1-0.1,0.2-0.2c6.3-6,15.4-13.6,15.4-13.6c0,0-10.1,12.5-11,13.8c-0.9,1.3,1.1,3.4,4.4,3
			c3.3-0.4,9.6-2.5,17.2-8.1c7.7-5.6,16-9.7,16-9.7C186.2,35.6,187.8,40.5,194.1,39.7z"/>
		<path fill="#7B9F3E" d="M164.8,174.7c7.4-1.8,35.6-8.8,40.6-36.6c0.8,16.4,2,15,8.8,21c4,3.5,13.3,0.4,13.9-8.3
			c0.6-8.8,3.8-17.6,1.6-23.4c7,10.3,13.7,21,13.4,24.3c-0.2,2.4,5.1,7.8,9.2,4.7c1.8-9.6-1.2-25.3-6.6-37
			c-5.3-11.4-15.5-23.3-21.6-29.6c-0.4,0.2-0.6,0.3-0.6,0.3c0,0-8.5,9.1-13.7,10.9c-3.5,1.2-4.1-3.6-4.1-3.6c0,0-7.5,11.5-13.6,14.1
			c-6.1,2.6-12.8-1.3-13.6-2.8c-0.8-1.5-9.8,10.8-17.5,14.1c-7.7,3.3-16.9-4.3-16.9-4.3c0,0-6.4,7-13.8,11.7
			c-1.3,16.3-2.1,36-10,56.2c8.4-8.8,30.5-35,34.5-49.2c-1.9,11.1-1.3,30.5-1.3,30.5C153.6,167.9,157.4,176.3,164.8,174.7z"/>
		<path fill="#7B9F3E" d="M248.5,167.8c-1.8,3.2-5.5,5.2-7.8,5.6c-5.9,0.9-2.5-9.2-2.5-9.2c0,0-5.5,6.5-12.4,11.3
			c-6.9,4.8-13.4,3.6-20.5-2.7c-6.3,8-28.8,20-36.9,23c-8.2,2.9-14.5-0.1-17.7-9.1c-3.5,3.8-8.4,7.8-13.6,11.4
			c1.2,9,0.5,14.5-8.3,30c0.7,0.3,4.6,3.4,5.4,3.2c5.5-1.2,10.3-7.6,12.8-13.3c2.4-5.7,10-19.9,10-19.9c0,0,7.2,2.9,7.1,6.5
			c-0.1,3.5-1.9,11.6,2.9,9.1c4.9-2.5,7.5-8.9,13.4-20c-0.4,7.2-0.7,8,7.2,7.2c7.8-0.8,15.6-5.1,16.1-14.4
			c6.9,20.5-20.1,31.4-22.2,26.8c-1.8,3.4-10.1,14.4-14.9,16.9c-4.8,2.5-8.6-2.8-8.6-2.8c0,0-9.7,11.5-14.4,15.2
			c-0.5,0.4-1.1,0.8-1.8,1.3c1.4,8.3-8.5,21-26,43.7c-0.1,0,12.2-1.9,12.2-1.8c10.6-5.8,23.1-22.2,24.1-32.7
			c9.1,10.3,5.5,31.4,7.8,33.7c2.2,2.3,16.1-6.1,24.7-11.1c8.6-4.9,8.6-20,10.7-32c6.8,7,14.6,32.1,18.4,31.1
			c3.9-1.1,8.8-4.7,13.8-9.5c5-4.8,2.7-5.1,1.8-13.3c-1-8.2-0.7-12.2,8.1-13.2c3.3,18.9,15,34.3,18.3,32.6c2.5-1.3,10-12.9,13.8-21
			C268.6,232.3,260.4,194.9,248.5,167.8z"/>
		<path fill="#4A5B29" d="M185.7,36c-6.6,4.4-12.8,9-19.7,13.5c-2.5,1.6-5.6,3.7-10.3,4.6c-6,1.2-5.5-0.1-5.9-1.1
			c-0.4-1.3,0.5-3.1,0.8-3.5c4.2-4.3,6.4-9,9.1-12.8c0-0.1-0.2-0.1-0.2,0c-4.7,4.2-8.6,8.5-12.7,12.8c-1.9,2-3.8,4-7.2,5.8
			c-4.8,2.5-20.1,7.6-19.9,2c0-0.2,0.5-1.2,1.1-1.6c5.8-3.5,10-7.1,12.4-11c0.1-0.1-0.4,0.4-0.5,0.5c-3.9,3.9-9.4,7-16.3,10.7
			c-3.5,1.9-7.4,3.7-11.8,5.4c-1.8,0.7-3.6,1.4-5.5,2.1c-2.1,0.8-7,2.6-11.8,3.6c-0.1,1.1,0.3,1.6,1.3,1.4c5.2-1.2,8.3-2.8,8.3-2.8
			c0,0-0.3,0.3-0.8,0.9c1.2-0.4,2.4-0.8,3.5-1.2c6.1-2.2,11.3-4.4,15.9-6.7c1.1,3.8,7.3,4.1,17.9,0.8c5.6-1.8,9.8-3.9,13.1-6.3
			c-0.3,2.5,1.3,5.1,8.6,3.5c7.4-1.7,11.6-5.5,15.1-8c5.8-4.2,11.2-8.3,15.7-12.6C185.9,35.9,185.7,35.9,185.7,36z"/>
	</g>
</g>
</svg>
