<?xml version="1.0" encoding="UTF-8" standalone="no"?>
<!-- Generator: Adobe Illustrator 18.1.1, SVG Export Plug-In . SVG Version: 6.00 Build 0)  -->

<svg
   xmlns:dc="http://purl.org/dc/elements/1.1/"
   xmlns:cc="http://creativecommons.org/ns#"
   xmlns:rdf="http://www.w3.org/1999/02/22-rdf-syntax-ns#"
   xmlns:svg="http://www.w3.org/2000/svg"
   xmlns="http://www.w3.org/2000/svg"
   xmlns:sodipodi="http://sodipodi.sourceforge.net/DTD/sodipodi-0.dtd"
   xmlns:inkscape="http://www.inkscape.org/namespaces/inkscape"
   version="1.1"
   id="Warstwa_1"
   x="0px"
   y="0px"
   viewBox="0 0 400.7 451.7"
   enable-background="new 0 0 400.7 451.7"
   xml:space="preserve"
   sodipodi:docname="tree1.svg"
   inkscape:version="0.92.3 (2405546, 2018-03-11)"><metadata
   id="metadata6110"><rdf:RDF><cc:Work
       rdf:about=""><dc:format>image/svg+xml</dc:format><dc:type
         rdf:resource="http://purl.org/dc/dcmitype/StillImage" /></cc:Work></rdf:RDF></metadata><defs
   id="defs6108" /><sodipodi:namedview
   pagecolor="#ffffff"
   bordercolor="#666666"
   borderopacity="1"
   objecttolerance="10"
   gridtolerance="10"
   guidetolerance="10"
   inkscape:pageopacity="0"
   inkscape:pageshadow="2"
   inkscape:window-width="1600"
   inkscape:window-height="837"
   id="namedview6106"
   showgrid="false"
   inkscape:zoom="0.52247065"
   inkscape:cx="201.307"
   inkscape:cy="158.8606"
   inkscape:window-x="-8"
   inkscape:window-y="-8"
   inkscape:window-maximized="1"
   inkscape:current-layer="Warstwa_1" />
<g
   id="g6103"
   inkscape:label="tree1">
	<g
   id="g6101">
		<g
   id="g6065">
			<path
   fill="#584F38"
   d="M187.1,352.1c0,0-7.5,3-14.8-8.9c-7.4-11.9-9.2-33.5-10.1-48.3s-9.9-24.1-9.9-24.1l-17.8-3.5     c0,0,16.5,15.9,18.3,32.5s0.5,45.3,7.9,53.2s17.7,13.9,19,32.2C181,403.6,187.1,352.1,187.1,352.1z"
   id="path6049" />
			<g
   id="g6061">
				<g
   id="g6053">
					<path
   fill="#584F38"
   d="M265.8,275.1c-3.4-1-6.8-1.9-10.2-2.5c-6.5,5.6-17.6,15.5-18.7,20c-1.6,6.3-0.4,13.9-4,23.8       c-3.6,9.9-13.4,16.9-13.4,16.9s0.5-33.5,0.3-41.6c-0.1-3.7,0.2-10.7,0.6-17.3c-4.3,1.1-9.3-6.3-13.4-4.5       c-6.5,5.6-11.9-0.5-17.8,5.6c0,0.1,0,0.1,0,0.2c0,0-1.5,42.1-1.9,49.5c-0.4,7.4-1,19.7-3.8,24.9c-2.8,5.2-7.7,15.6-7.7,15.6       s-0.4,20.8-1.2,35.1s-6.1,44.5-8.1,47c0,0,20.3,8,64.5,1.2c-12.4-14-17-47.2-17.4-63.2c-0.4-16,2.7-28.6,11.9-35.6       c9.1-7,15.3-16.8,17.3-19.9c2-3.1,3.7-26.4,3.5-33.9C246.1,290.2,260.7,278.9,265.8,275.1z"
   id="path6051" />
				</g>
				<path
   fill="#746848"
   d="M189.2,275.5c0,0.1,0,0.1-0.1,0.2c0,0-1.5,42.1-1.9,49.5s-1,19.7-3.8,24.9c-2.8,5.2-7.7,15.6-7.7,15.6      s-0.4,20.8-1.2,35.1s-6.1,44.5-8.1,47c0,0,5.1,2,15.7,3.1c-6.3-9.2,0.3-23.6,1.3-35.5c1.4-17.3-0.1-36.9,6.8-53.3      c9.3-22.1,4-68,3.8-91.8C192.5,272.1,190.9,273.8,189.2,275.5z"
   id="path6055" />
				<path
   fill="#746848"
   d="M253.8,272.4c-6.6,5.7-15.8,14.3-16.8,18.3c-1.6,6.3-0.4,13.9-4,23.8c-3.6,9.9-13.6,17.1-13.6,17.1      s1,3.9-5,17.4c-0.4,0.8-0.2,5.7,0.1,6.5c3.5-7.4,7.1-14.7,13.2-20.7c8.9-8.8,15.2-15.2,15.3-27.5c0.3-28.2,14.5-24.6,20.2-33      C260,273.5,256.9,272.8,253.8,272.4z"
   id="path6057" />
				<path
   fill="#93845C"
   d="M188.2,276.6c0.7,12.4,1.9,57.2-3,74.9c0,0,8.3-45.7,7.1-79.2C191,273.7,189.6,275.1,188.2,276.6z"
   id="path6059" />
			</g>
			<path
   fill="#746848"
   d="M179,354.6c0.4-1.2,0.7-2.3,1-3.5c-2.4-1.2-5.1-3.6-7.8-8c-7.4-11.9-9.2-33.5-10.1-48.3     s-9.9-24.1-9.9-24.1l-9-1.8c0.6,1,1.2,2,1.8,2.9c0.9,1.1,1.8,2.1,2.7,3.2c6.9,8.7,9.3,16.7,9.7,26.6c1.5,4,2.6,7.7,2.8,12.4     c0.2,7-0.6,13.1,1.8,19.9c1.9,5.4,4.6,10.9,8.1,15.4c1.9,2.5,4.3,4.7,6.7,6.9C177.4,355.6,178.2,355,179,354.6z"
   id="path6063" />
		</g>
		<g
   id="g6075">
			<path
   fill="#4A5B29"
   d="M190.5,98.8c121.6,21.2,192.4,99,205.2,139.7c11.3,31.1,3.7,59.8-28.2,36.4     c-11.6,32.5-26.6,13.7-33.9-2.7c-22.9,56-52.8,21.5-57.8-1.3c-34.4,50.2-51,31.3-59.9,5.5c-23.1,36.1-61.4,38.4-69.1,0.2     c-31.6,41-72.1,27.7-62.6-28.2C40.8,316.3-6.2,273,0.7,228.3C13.7,149.9,117.7,85.8,190.5,98.8z"
   id="path6067" />
			<path
   fill="#557535"
   d="M190.5,98.8c121.6,21.2,192.4,99,205.2,139.7c11.2,31.1,4.7,52.8-28,29c-11.5,32.5-25,15.9-32.4-0.5     c-22.9,55.9-52.7,18.5-57.9-4.4c-34.9,49.9-51.5,27.9-60.6,2c-23.7,35.7-62.7,40.8-70.5,2.6c-31.9,40.8-65.8,20.4-55-34.9     c-46.1,66.6-97.4,37.9-90.1-6.7C14.8,147.4,117.8,85.8,190.5,98.8z"
   id="path6069" />
			<path
   fill="#6B8F3C"
   d="M190.5,98.8c121.6,21.2,192.4,99,205.2,139.7c11.2,31.1,4.7,52.8-28,29c-11.5,32.5-25,15.9-32.4-0.5     c-22.7,56-51.9,9.6-57.5-13.5c-13.6,19.2-24.7,33.1-33.2,34.3c-6.6,0.9-11.4-8.3-15.4-13.7c-4.1-5.7-5.4-13.6-8.2-21.7     c-8.4,12.3-15.3,18.6-24.3,24.2c-6.7,4.1-15.6,9.6-22,7.9c-5-1.3-13.2-8.4-16.7-13.2c-3.4-4.6-3.8-14.4-5.3-21.8     c-11.1,13.4-17.6,21.6-28.3,23.9c-3.9,0.8-8.9,6.7-13.4,5.9c-6.4-1.2-12.1-9.8-14.8-14.1c-5.8-9.1-3.5-28,0.9-48.3     C72.3,249.1,58,247.9,55,232.3c-2.9-15.5,6.9-43.7,10-52.9C73.8,147.4,119.2,86.7,190.5,98.8z"
   id="path6071" />
			<path
   fill="#7B9F3E"
   d="M190.5,98.8c121.6,21.2,192.4,99,205.2,139.7c11.2,31.1,4.7,52.8-28,29c-11.5,32.5-25,15.9-32.4-0.5     c-8.2,20.1-16.9,21.8-25.3,20.1c-5.8-1.1-11.5-1.7-16.3-7.2c-7.7-8.6-13.7-17.4-15.9-26.5c-11,15.5-19.6,19.9-26.7,23.1     c-15.7,7-23.8-6.4-30.1-24.2c-3-0.1-6.9-3.1-12.7-7.3c-4.5-3.3-10.9-7.4-13.9-11.2C163.2,194.4,135,90.9,190.5,98.8z"
   id="path6073" />
		</g>
		<path
   fill="#557535"
   d="M195.6,58.5c91.1,4.8,148.7,64.9,167.3,109.8c14.5,32.9,17.2,64.3-14.7,38c-5.5,33.2-21.8,12.3-29.8-4    c-14.2,54-45.4,16.7-50.4-3.6c-27.6,43.8-44.4,23.7-52.1,1.8c-19.8,29.5-55.3,26.3-60.4-4.1c-29.6,29.7-67,11.7-58.7-17.8    c-33.2,31.6-68.6,4-56.6-25.1C61.8,102.6,141.4,56,195.6,58.5z"
   id="path6077" />
		<g
   id="g6087">
			<path
   fill="#4A5B29"
   d="M196.3,43.4c91.1,4.8,152.3,70.8,170.9,115.7c14.5,32.9,13.2,64.1-18.6,37.8c-5.5,33.2-21.8,12.3-29.8-4     c-14.2,54-45.4,16.7-50.4-3.6c-27.6,43.8-44.4,23.7-52.1,1.8c-19.8,29.5-55.3,26.3-60.4-4.1c-29.6,29.7-65.3,14.9-52.4-25.1     c-43.1,46.8-80.8,11-68.8-18.1C56.4,92.9,142.2,40.9,196.3,43.4z"
   id="path6079" />
			<path
   fill="#557535"
   d="M196.3,43.4c91.1,4.8,152.3,70.8,170.9,115.7c14.5,32.9,12.8,56.3-19.5,30.1c-5.4,33.2-20,14.9-28-1.3     c-14.1,54-45.2,14.2-50.3-6.1c-27.7,43.8-44.5,21.2-52.3-0.7c-20.1,29.5-56,28.8-61.1-1.5c-29.7,29.7-58.8,10.8-45.1-29.3     c-44.5,46.9-87.1,20.2-75-8.9C57.8,90.3,142.3,40.9,196.3,43.4z"
   id="path6081" />
			<path
   fill="#6B8F3C"
   d="M196.3,43.4c91.1,4.8,152.3,70.8,170.9,115.7c14.5,32.9,12.8,56.3-19.5,30.1c-5.4,33.2-20,14.9-28-1.3     c-14,54-45.2,5.9-50.5-14.4c-7.3,11.5-10.4,18.8-16.8,22.6c-8.1,4.8-19,3.8-23.5-0.5c-5.4-5.1-5.3-16-8.4-24.8     c-7.4,10.8-15.7,19.2-25.7,23.3c-9.4,3.9-20.4,4-26.5-1c-5.2-4.2-4.8-18.5-6.2-27.3c-9.6,9.4-13.1,16-22.8,17.8     c-9.2,1.8-24.8-0.6-28.1-7.2c-4.2-8.3,3.7-28.5,9.2-43.8c-10.1,10.4-14.2,19.2-23.2,22c-7,2.2-20-0.2-21.8-2.1     c-6.2-6.8,13.8-33.6,17.7-41.9C103.4,88,142.8,40.5,196.3,43.4z"
   id="path6083" />
			<path
   fill="#7B9F3E"
   d="M196.3,43.4c91.1,4.8,152.3,70.8,170.9,115.7c14.5,32.9,12.8,56.3-19.5,30.1c-5.4,33.2-20,14.9-28-1.3     c-14,54-45.2,5.9-50.5-14.4c-27.9,43.8-40.9,19.3-48.7-2.7c-14.5,5.3-17.2-3.1-26.7-13.5c-6.5-7-26-12.8-29.8-22     C148.1,96.6,163.4,41.3,196.3,43.4z"
   id="path6085" />
		</g>
		<path
   fill="#557535"
   d="M205.6,7.4c59.2,2.8,103.9,50.5,124.9,84.4c15.5,25,21.6,48.2-7.1,27.8c0.2,24.6-13.7,8.8-21.5-3.5    c-5.3,40-36.4,13.8-41-1.4c-18.7,32.7-33.9,17.9-39.9,1.5c-14.7,22.2-45.9,22.5-48.7-0.1c-24.3,23.1-58.8,19-45.1-11.8    C89.7,141.5,72.9,108,86.9,85C111.6,44.6,170.7,5.8,205.6,7.4z"
   id="path6089" />
		<g
   id="g6099">
			<path
   fill="#4A5B29"
   d="M206,0.1c59.2,2.8,105.6,54.2,126.7,88.1c15.5,25,19.7,48.1-9.1,27.7c0.2,24.6-15.7,8.7-23.4-3.6     c-5.3,40-34.3,12-38.9-3.2c-18.7,32.7-33.9,17.9-39.9,1.5c-14.7,22.2-43.9,20.7-46.6-1.9c-24.3,23.1-52.6,13.7-39-17.2     c-37.6,37.1-64.7,12.6-50.6-10.4C109.9,40.7,171.1-1.6,206,0.1z"
   id="path6091" />
			<path
   fill="#557535"
   d="M206,0.1c59.2,2.8,105.6,54.2,126.7,88.1c15.5,25,18,42.4-10.7,21.9c0.2,24.6-13.8,10.7-21.6-1.6     c-5.3,40-34.2,10.1-38.8-5.1c-5.9,10.4-11.5,15.2-16.5,18.4c-3.4,2.1-6.7,4.5-9.6,3.3c-6.3-2.7-10.9-14.4-13.7-22.1     c-5.8,8.8-8,15.2-15.9,17.6c-5,1.6-15.8,1.4-20-0.3c-5.8-2.3-9.9-9.4-10.9-17.4c-2.5,2.4-6,9.2-14.8,11.5     c-3.9,1-13.5,0.9-16.5-0.4c-6-2.7-9.8-13-1.6-31.7c-17.6,17.3-30,25.4-40.8,24.4c-12.4-1.1-22-16.1-14.5-28.3     C111.5,38.1,171.1-1.6,206,0.1z"
   id="path6093" />
			<path
   fill="#6B8F3C"
   d="M206,0.1c59.2,2.8,105.6,54.2,126.7,88.1c15.5,25,18,42.4-10.7,21.9c0.2,24.6-13.8,10.7-21.6-1.6     c-5.3,40-34.9,3.9-39.5-11.3c-18.7,32.7-30.8,14.5-36.8-1.9c-14.7,22.2-41.4,19.9-44.1-2.7c-24.3,23.1-43.4,7-29.8-23.8     c-37.6,37.1-24.3-4.9-18.4-15.6C141.6,35.6,171.1-1.6,206,0.1z"
   id="path6095" />
			<path
   fill="#7B9F3E"
   d="M206,0.1c59.2,2.8,105.6,54.2,126.7,88.1c13.2,21.3,18.9,37.1,2.1,28.8c-3-1.5-8.5-3.8-12.8-6.8     c0.1,12.3-5.2,12.9-9.6,11c-4.5-1.9-8-6.4-11.9-12.6c-1.6,12.2-6.7,16.8-12.3,15.4c-4.6-1.1-9.5-6.8-13.7-10.3     c-7.7-6.5-11.4-9.5-13.5-16.3c-18.7,32.7-30.8,14.5-36.8-1.9c-2.9,2.6-6,5.3-9,4.8c-5.5-0.9-11.1-7.8-16.8-12.7     c-6.5-5.6-14.3-8.4-16.7-18.6C174.6,39.7,186.9-0.9,206,0.1z"
   id="path6097" />
		</g>
	</g>
</g>
</svg>