<?xml version="1.0" encoding="utf-8"?>
<!-- Generator: Adobe Illustrator 18.1.1, SVG Export Plug-In . SVG Version: 6.00 Build 0)  -->
<svg version="1.1" id="Warstwa_1" xmlns="http://www.w3.org/2000/svg" xmlns:xlink="http://www.w3.org/1999/xlink" x="0px" y="0px"
	 viewBox="0 0 90.9 176" enable-background="new 0 0 90.9 176" xml:space="preserve">
<g>
	<g>
		<g>
			<path fill="#32383E" d="M36,39.3v-7.4c0-4.1,3.4-7.5,7.6-7.5s7.6,3.4,7.6,7.5v7.4h3.8v-7.4c0-6.2-5.1-11.2-11.3-11.2
				s-11.3,5-11.3,11.2v7.4H36z"/>
		</g>
		<polygon fill="#808184" points="57.5,63 31,63 27.1,36 61.4,36 		"/>
		<polygon fill="#929497" points="57.5,63 46.8,63 49,36 61.4,36 		"/>
		<path fill="#464C53" d="M60.1,34.9h-0.5H27.5H27c-0.9,0-2.3,0.2-2.3,1.1v0.1c0,0.8,1.5,2.5,2.3,2.5h0.5h32.1h0.5
			c0.9,0,2.3-1.6,2.3-2.5V36C62.5,35.2,61,34.9,60.1,34.9z"/>
		<path fill="#464C53" d="M56.5,62.9h-0.4c-0.3,0-0.5,0-0.8,0H32.5c-0.3,0-0.6,0-0.8,0h-0.4c-0.8,0-2.1-0.3-2.1,1V64
			c0,1.2,1.3,1.6,2.1,1.6h1.3h22.8h1.3c0.8,0,2.1-0.3,2.1-1.6v-0.1C58.7,62.7,57.3,62.9,56.5,62.9z"/>
	</g>
	<g>
		<rect x="5.4" y="70" fill="#BF6428" width="80" height="81"/>
		<rect x="0.4" y="134" fill="#754D29" width="90" height="42"/>
		<path fill="#754D29" d="M81.4,65.6V35c0-19.6-16.3-35-37.2-35h-0.8C23,0,7.6,15.1,7.6,35v30.6H0.1v16.9h90.8V65.6H81.4z M13.3,35
			c0-16.8,12.9-29.4,30.1-29.4h0.8c17.7,0,31.5,12.9,31.5,29.4v30.6H13.3V35z"/>
		<rect x="5.4" y="106" fill="#9B5926" width="27" height="10"/>
		<rect x="55.4" y="89" fill="#9B5926" width="30" height="11"/>
		<rect x="42.4" y="118" fill="#9B5926" width="30" height="10"/>
	</g>
</g>
</svg>
