<?xml version="1.0" encoding="UTF-8" standalone="no"?>
<!-- Generator: Adobe Illustrator 18.1.1, SVG Export Plug-In . SVG Version: 6.00 Build 0)  -->

<svg
   xmlns:dc="http://purl.org/dc/elements/1.1/"
   xmlns:cc="http://creativecommons.org/ns#"
   xmlns:rdf="http://www.w3.org/1999/02/22-rdf-syntax-ns#"
   xmlns:svg="http://www.w3.org/2000/svg"
   xmlns="http://www.w3.org/2000/svg"
   xmlns:sodipodi="http://sodipodi.sourceforge.net/DTD/sodipodi-0.dtd"
   xmlns:inkscape="http://www.inkscape.org/namespaces/inkscape"
   version="1.1"
   id="Warstwa_1"
   x="0px"
   y="0px"
   viewBox="0 0 582.7 645.4"
   enable-background="new 0 0 582.7 645.4"
   xml:space="preserve"
   sodipodi:docname="windmill1.svg"
   inkscape:version="0.92.3 (2405546, 2018-03-11)"><metadata
   id="metadata7736"><rdf:RDF><cc:Work
       rdf:about=""><dc:format>image/svg+xml</dc:format><dc:type
         rdf:resource="http://purl.org/dc/dcmitype/StillImage" /></cc:Work></rdf:RDF></metadata><defs
   id="defs7734" /><sodipodi:namedview
   pagecolor="#ffffff"
   bordercolor="#666666"
   borderopacity="1"
   objecttolerance="10"
   gridtolerance="10"
   guidetolerance="10"
   inkscape:pageopacity="0"
   inkscape:pageshadow="2"
   inkscape:window-width="1600"
   inkscape:window-height="837"
   id="namedview7732"
   showgrid="false"
   inkscape:zoom="1.0342559"
   inkscape:cx="336.12017"
   inkscape:cy="303.03269"
   inkscape:window-x="-8"
   inkscape:window-y="-8"
   inkscape:window-maximized="1"
   inkscape:current-layer="g7729" />
<g
   id="g7729"
   inkscape:label="windmill1">
	<g
   id="g7617"
   style="display:inline"
   inkscape:label="windmill"
   inkscape:export-filename="D:\Godot\releases\nightly-builds\projects\tankz\landscape\green_hills\windmill1.png"
   inkscape:export-xdpi="201"
   inkscape:export-ydpi="201">
		<g
   id="g7579">
			<polygon
   points="351.9,276 291.3,187.3 230.7,276 "
   id="polygon7505"
   style="fill:#6e6f71" />
			<polygon
   points="328.1,267.1 359,645.4 223.7,645.4 254.6,267.1 291.3,215.7 "
   id="polygon7507"
   style="fill:#ce425a" />
			<g
   id="g7511">
				<polygon
   points="291.3,177.9 220.8,280.6 235.4,280.6 291.3,200.5 347.3,280.6 361.9,280.6 "
   id="polygon7509"
   style="fill:#ffffff" />
			</g>
			<g
   id="g7577">
				<polygon
   points="358,632.8 224.7,632.8 224.6,633.8 358,633.8 "
   id="polygon7513"
   style="fill:#911932" />
				<polygon
   points="356.9,619.7 225.8,619.7 225.7,620.8 357,620.8 "
   id="polygon7515"
   style="fill:#911932" />
				<polygon
   points="355.8,606.6 226.9,606.6 226.8,607.7 355.9,607.7 "
   id="polygon7517"
   style="fill:#911932" />
				<polygon
   points="354.7,593.5 227.9,593.5 227.8,594.6 354.8,594.6 "
   id="polygon7519"
   style="fill:#911932" />
				<polygon
   points="353.7,580.4 229,580.4 228.9,581.5 353.8,581.5 "
   id="polygon7521"
   style="fill:#911932" />
				<polygon
   points="352.6,567.3 230.1,567.3 230,568.4 352.7,568.4 "
   id="polygon7523"
   style="fill:#911932" />
				<polygon
   points="351.5,554.2 231.1,554.2 231.1,555.3 351.6,555.3 "
   id="polygon7525"
   style="fill:#911932" />
				<polygon
   points="350.5,541.1 232.2,541.1 232.1,542.2 350.5,542.2 "
   id="polygon7527"
   style="fill:#911932" />
				<polygon
   points="349.4,528 233.3,528 233.2,529.1 349.5,529.1 "
   id="polygon7529"
   style="fill:#911932" />
				<polygon
   points="348.3,514.9 234.4,514.9 234.3,516 348.4,516 "
   id="polygon7531"
   style="fill:#911932" />
				<polygon
   points="347.2,501.8 235.4,501.8 235.3,502.9 347.3,502.9 "
   id="polygon7533"
   style="fill:#911932" />
				<polygon
   points="346.2,488.7 236.5,488.7 236.4,489.8 346.3,489.8 "
   id="polygon7535"
   style="fill:#911932" />
				<polygon
   points="345.1,475.6 237.6,475.6 237.5,476.7 345.2,476.7 "
   id="polygon7537"
   style="fill:#911932" />
				<polygon
   points="344,462.5 238.6,462.5 238.5,463.6 344.1,463.6 "
   id="polygon7539"
   style="fill:#911932" />
				<polygon
   points="343,449.4 239.7,449.4 239.6,450.5 343.1,450.5 "
   id="polygon7541"
   style="fill:#911932" />
				<polygon
   points="341.9,436.3 240.8,436.3 240.7,437.4 342,437.4 "
   id="polygon7543"
   style="fill:#911932" />
				<polygon
   points="340.8,423.2 241.8,423.2 241.8,424.3 340.9,424.3 "
   id="polygon7545"
   style="fill:#911932" />
				<polygon
   points="339.7,410.1 242.9,410.1 242.8,411.2 339.8,411.2 "
   id="polygon7547"
   style="fill:#911932" />
				<polygon
   points="338.7,397 244,397 243.9,398.1 338.8,398.1 "
   id="polygon7549"
   style="fill:#911932" />
				<polygon
   points="337.6,383.9 245.1,383.9 245,385 337.7,385 "
   id="polygon7551"
   style="fill:#911932" />
				<polygon
   points="336.5,370.8 246.1,370.8 246,371.9 336.6,371.9 "
   id="polygon7553"
   style="fill:#911932" />
				<polygon
   points="335.5,357.7 247.2,357.7 247.1,358.8 335.6,358.8 "
   id="polygon7555"
   style="fill:#911932" />
				<polygon
   points="334.4,344.6 248.3,344.6 248.2,345.7 334.5,345.7 "
   id="polygon7557"
   style="fill:#911932" />
				<polygon
   points="333.3,331.5 249.3,331.5 249.3,332.6 333.4,332.6 "
   id="polygon7559"
   style="fill:#911932" />
				<polygon
   points="332.3,318.4 250.4,318.4 250.3,319.5 332.3,319.5 "
   id="polygon7561"
   style="fill:#911932" />
				<polygon
   points="331.2,305.3 251.5,305.3 251.4,306.4 331.3,306.4 "
   id="polygon7563"
   style="fill:#911932" />
				<polygon
   points="330.1,292.2 252.6,292.2 252.5,293.3 330.2,293.3 "
   id="polygon7565"
   style="fill:#911932" />
				<polygon
   points="329,279.1 253.6,279.1 253.5,280.2 329.1,280.2 "
   id="polygon7567"
   style="fill:#911932" />
				<polygon
   points="254.6,267.1 328.1,267.1 327.3,266 255.4,266 "
   id="polygon7569"
   style="fill:#911932" />
				<polygon
   points="318,252.9 264.7,252.9 263.9,254 318.7,254 "
   id="polygon7571"
   style="fill:#911932" />
				<polygon
   points="273.3,240.9 309.4,240.9 308.6,239.8 274.1,239.8 "
   id="polygon7573"
   style="fill:#911932" />
				<polygon
   points="282.6,227.8 300,227.8 299.2,226.7 283.4,226.7 "
   id="polygon7575"
   style="fill:#911932" />
			</g>
		</g>
		<polygon
   points="291.3,215.7 254.6,267.1 253.9,276 291.3,234.2 328.8,276.5 328.1,267.1 "
   id="polygon7581"
   style="opacity:0.2;fill:#231f20" />
		<g
   id="g7589">
			<rect
   x="272"
   y="328.79999"
   width="38.599998"
   height="22.200001"
   id="rect7583"
   style="fill:#240f15" />
			<g
   id="g7587">
				<path
   d="m 312.3,352.8 h -42 v -25.7 h 42 z m -38.5,-3.4 H 309 v -18.8 h -35.2 z"
   id="path7585"
   inkscape:connector-curvature="0"
   style="fill:#ffffff" />
			</g>
		</g>
		<g
   id="g7615">
			<rect
   x="260.79999"
   y="561.09998"
   width="61"
   height="84.300003"
   id="rect7591"
   style="fill:#ce425a" />
			<g
   id="g7609">
				<rect
   x="266.20001"
   y="561.09998"
   width="0.69999999"
   height="84.300003"
   id="rect7593"
   style="fill:#911932" />
				<rect
   x="273.29999"
   y="561.09998"
   width="0.69999999"
   height="84.300003"
   id="rect7595"
   style="fill:#911932" />
				<rect
   x="280.39999"
   y="561.09998"
   width="0.69999999"
   height="84.300003"
   id="rect7597"
   style="fill:#911932" />
				<rect
   x="287.5"
   y="561.09998"
   width="0.69999999"
   height="84.300003"
   id="rect7599"
   style="fill:#911932" />
				<rect
   x="294.5"
   y="561.09998"
   width="0.69999999"
   height="84.300003"
   id="rect7601"
   style="fill:#911932" />
				<rect
   x="301.60001"
   y="561.09998"
   width="0.69999999"
   height="84.300003"
   id="rect7603"
   style="fill:#911932" />
				<rect
   x="308.70001"
   y="561.09998"
   width="0.69999999"
   height="84.300003"
   id="rect7605"
   style="fill:#911932" />
				<rect
   x="315.79999"
   y="561.09998"
   width="0.69999999"
   height="84.300003"
   id="rect7607"
   style="fill:#911932" />
			</g>
			<rect
   x="261.79999"
   y="561.90002"
   width="59.099998"
   height="7.5"
   id="rect7611"
   style="opacity:0.2;fill:#231f20" />
			<path
   d="m 320.1,561.1 h -57.6 -1.7 v 2.4 79.5 2.4 h 1.7 57.6 1.7 v -2.4 -79.5 -2.4 z m -1.8,2.5 -26.9,37.2 -26.9,-37.2 z m -54.5,3.9 25.8,35.7 -25.8,35.7 z m 0.6,75.3 26.9,-37.2 26.9,37.2 z m 54.5,-3.9 -25.8,-35.7 25.8,-35.7 z"
   id="path7613"
   inkscape:connector-curvature="0"
   style="fill:#ffffff" />
		</g>
	</g>
	<path
   d="m 309,293.2 c -0.2,-4.3 -2.1,-8.4 -5.8,-11.3 -0.5,-0.4 -1.1,-0.8 -1.7,-1.1 l 8.8,-34.7 3.3,0.8 -18.8,-26.3 -3.4,20.7 10.5,2.7 -8.8,34.7 c -4.3,0.2 -8.4,2.1 -11.3,5.7 -0.4,0.5 -0.8,1.1 -1.1,1.7 l -27.1,-6.8 -0.7,8.7 25.7,6.5 c 0.2,4.3 2.1,8.4 5.7,11.3 0.5,0.4 1.1,0.8 1.7,1.1 l -8.8,34.7 -10.5,-2.7 -23.6,68 -14,171.1 28.4,7.2 38.6,-238.8 -10.5,-2.7 8.8,-34.7 c 4.3,-0.2 8.4,-2.1 11.3,-5.8 0.4,-0.5 0.8,-1.1 1.1,-1.7 l 24.5,6.2 -0.7,-9.1 z"
   id="path7619"
   inkscape:connector-curvature="0"
   style="display:none;opacity:0.2;fill:#231f20" />
	<g
   id="g7727"
   inkscape:label="windmill_wings"
   inkscape:export-filename="D:\Godot\releases\nightly-builds\projects\tankz\landscape\green_hills\windmill1_wings.png"
   inkscape:export-xdpi="201"
   inkscape:export-ydpi="201"
   inkscape:transform-center-x="-0.53905189"
   inkscape:transform-center-y="0.039558564"
   transform="rotate(-14.237929,290.83724,291.17908)">
		<g
   id="g7633">
			<g
   id="g7625">
				
					<rect
   x="212.7"
   y="287.10001"
   transform="matrix(0.9696,0.2448,-0.2448,0.9696,79.7837,-62.6002)"
   width="158.10001"
   height="5.1999998"
   id="rect7621"
   style="fill:#5d331a" />
				
					<rect
   x="212"
   y="289.60001"
   transform="matrix(0.9696,0.2448,-0.2448,0.9696,80.4749,-62.3313)"
   width="158.10001"
   height="6"
   id="rect7623"
   style="fill:#936236" />
			</g>
			<g
   id="g7631">
				
					<rect
   x="213.89999"
   y="289.10001"
   transform="matrix(-0.2448,0.9696,-0.9696,-0.2448,647.5656,79.0964)"
   width="158.10001"
   height="5.1999998"
   id="rect7627"
   style="fill:#5d331a" />
				
					<rect
   x="211"
   y="288"
   transform="matrix(-0.2448,0.9696,-0.9696,-0.2448,643.2231,81.0069)"
   width="158.10001"
   height="6"
   id="rect7629"
   style="fill:#936236" />
			</g>
		</g>
		<g
   id="g7641">
			<path
   d="m 303.3,300.8 c -5.2,6.6 -14.8,7.7 -21.3,2.5 -6.6,-5.2 -7.7,-14.8 -2.5,-21.4 5.2,-6.6 14.8,-7.7 21.3,-2.5 6.5,5.2 7.7,14.8 2.5,21.4 z"
   id="path7635"
   inkscape:connector-curvature="0"
   style="fill:#936236" />
			<path
   d="m 299.4,297.9 c -3.7,4.7 -10.5,5.5 -15.2,1.8 -4.7,-3.7 -5.5,-10.5 -1.8,-15.2 3.7,-4.7 10.5,-5.5 15.2,-1.8 4.7,3.7 5.5,10.5 1.8,15.2 z"
   id="path7637"
   inkscape:connector-curvature="0"
   style="fill:#462213" />
			<path
   d="m 296.3,295.5 c -2.4,3 -6.8,3.5 -9.8,1.2 -3,-2.4 -3.5,-6.8 -1.1,-9.8 2.4,-3 6.7,-3.5 9.8,-1.2 3,2.4 3.5,6.8 1.1,9.8 z"
   id="path7639"
   inkscape:connector-curvature="0"
   style="fill:#936236" />
		</g>
		<g
   id="g7683">
			<g
   id="g7661">
				<polygon
   points="327.6,0 397.7,17.7 318.4,246.2 289,238.8 "
   id="polygon7643"
   style="fill:#936236" />
				<polygon
   points="386.8,23.6 313,236.2 298.5,232.5 334.4,10.4 "
   id="polygon7645"
   style="fill:#d1d2d3" />
				
					<rect
   x="321.29999"
   y="61.5"
   transform="matrix(0.9696,0.2448,-0.2448,0.9696,26.6701,-83.2581)"
   width="54"
   height="8.3999996"
   id="rect7647"
   style="fill:#936236" />
				<path
   d="m 333.5,201.1 c 0.5,-2.8 1.3,-5.5 2.3,-8.1 l -35.6,-9 c -0.1,2.5 -0.5,5 -1,7.4 -0.1,0.3 -0.2,0.6 -0.3,0.9 z"
   id="path7649"
   inkscape:connector-curvature="0"
   style="fill:#936236" />
				<path
   d="m 357.6,127.5 -46.5,-11.7 c -0.3,2.8 -0.8,5.6 -1.6,8.3 l 45.6,11.5 c 0.6,-2.8 1.4,-5.5 2.5,-8.1 z"
   id="path7651"
   inkscape:connector-curvature="0"
   style="fill:#936236" />
				<polygon
   points="376.9,21.1 336.7,14.3 328.7,45.8 334.4,10.4 "
   id="polygon7653"
   style="fill:#f2f2f2" />
				<polygon
   points="318.5,108.9 328.4,68.3 361.4,73.3 325.7,64.3 "
   id="polygon7655"
   style="fill:#f2f2f2" />
				<polygon
   points="343,132.5 318.4,128.9 307.6,176 315.8,125.6 "
   id="polygon7657"
   style="fill:#f2f2f2" />
				<polygon
   points="322.1,198.2 306.9,197 299.3,227.3 304.7,193.8 "
   id="polygon7659"
   style="fill:#f2f2f2" />
			</g>
			<g
   id="g7681">
				<polygon
   points="255.1,582.7 185,565 264.3,336.5 293.7,343.9 "
   id="polygon7663"
   style="fill:#936236" />
				<polygon
   points="195.9,559.1 269.7,346.5 284.2,350.1 248.3,572.3 "
   id="polygon7665"
   style="fill:#d1d2d3" />
				
					<rect
   x="207.39999"
   y="512.79999"
   transform="matrix(-0.9696,-0.2448,0.2448,-0.9696,335.0522,1075.634)"
   width="54"
   height="8.3999996"
   id="rect7667"
   style="fill:#936236" />
				<path
   d="m 249.2,381.6 c -0.5,2.8 -1.3,5.5 -2.3,8.1 l 35.6,9 c 0.1,-2.5 0.5,-5 1,-7.4 0.1,-0.3 0.2,-0.6 0.3,-0.9 z"
   id="path7669"
   inkscape:connector-curvature="0"
   style="fill:#936236" />
				<path
   d="m 225.1,455.2 46.5,11.7 c 0.3,-2.8 0.8,-5.6 1.6,-8.3 l -45.6,-11.5 c -0.6,2.8 -1.5,5.5 -2.5,8.1 z"
   id="path7671"
   inkscape:connector-curvature="0"
   style="fill:#936236" />
				<polygon
   points="205.8,561.6 246,568.3 254,536.9 248.3,572.3 "
   id="polygon7673"
   style="fill:#f2f2f2" />
				<polygon
   points="264.2,473.7 254.2,514.3 221.2,509.3 257,518.4 "
   id="polygon7675"
   style="fill:#f2f2f2" />
				<polygon
   points="239.6,450.2 264.3,453.7 275,406.7 266.9,457.1 "
   id="polygon7677"
   style="fill:#f2f2f2" />
				<polygon
   points="260.6,384.4 275.8,385.7 283.3,355.4 277.9,388.8 "
   id="polygon7679"
   style="fill:#f2f2f2" />
			</g>
		</g>
		<g
   id="g7725">
			<g
   id="g7703">
				<polygon
   points="582.7,327.6 565,397.7 336.5,318.4 343.9,289 "
   id="polygon7685"
   style="fill:#936236" />
				<polygon
   points="559.1,386.8 346.5,313 350.1,298.5 572.3,334.4 "
   id="polygon7687"
   style="fill:#d1d2d3" />
				
					<rect
   x="490"
   y="344.10001"
   transform="matrix(-0.2448,0.9696,-0.9696,-0.2448,981.2542,-67.7096)"
   width="54"
   height="8.3999996"
   id="rect7689"
   style="fill:#936236" />
				<path
   d="m 381.6,333.5 c 2.8,0.5 5.5,1.3 8.1,2.3 l 9,-35.6 c -2.5,-0.1 -5,-0.5 -7.4,-1 -0.3,-0.1 -0.6,-0.2 -0.9,-0.3 z"
   id="path7691"
   inkscape:connector-curvature="0"
   style="fill:#936236" />
				<path
   d="m 455.2,357.6 11.7,-46.5 c -2.8,-0.3 -5.6,-0.8 -8.3,-1.6 l -11.5,45.6 c 2.8,0.6 5.5,1.4 8.1,2.5 z"
   id="path7693"
   inkscape:connector-curvature="0"
   style="fill:#936236" />
				<polygon
   points="561.6,376.9 568.3,336.7 536.9,328.7 572.3,334.4 "
   id="polygon7695"
   style="fill:#f2f2f2" />
				<polygon
   points="473.7,318.5 514.3,328.4 509.3,361.4 518.4,325.7 "
   id="polygon7697"
   style="fill:#f2f2f2" />
				<polygon
   points="450.2,343 453.7,318.4 406.7,307.6 457.1,315.8 "
   id="polygon7699"
   style="fill:#f2f2f2" />
				<polygon
   points="384.4,322.1 385.7,306.9 355.4,299.3 388.8,304.7 "
   id="polygon7701"
   style="fill:#f2f2f2" />
			</g>
			<g
   id="g7723">
				<polygon
   points="0,255.1 17.7,185 246.2,264.3 238.8,293.7 "
   id="polygon7705"
   style="fill:#936236" />
				<polygon
   points="23.6,195.9 236.2,269.7 232.5,284.2 10.4,248.3 "
   id="polygon7707"
   style="fill:#d1d2d3" />
				
					<rect
   x="38.700001"
   y="230.2"
   transform="matrix(0.2448,-0.9696,0.9696,0.2448,-177.6378,240.6725)"
   width="54"
   height="8.3999996"
   id="rect7709"
   style="fill:#936236" />
				<path
   d="m 201.1,249.2 c -2.8,-0.5 -5.5,-1.3 -8.1,-2.3 l -9,35.6 c 2.5,0.1 5,0.5 7.4,1 0.3,0.1 0.6,0.2 0.9,0.3 z"
   id="path7711"
   inkscape:connector-curvature="0"
   style="fill:#936236" />
				<path
   d="m 127.5,225.1 -11.7,46.5 c 2.8,0.3 5.6,0.8 8.3,1.6 l 11.5,-45.6 c -2.8,-0.6 -5.5,-1.5 -8.1,-2.5 z"
   id="path7713"
   inkscape:connector-curvature="0"
   style="fill:#936236" />
				<polygon
   points="21.1,205.8 14.3,246 45.8,254 10.4,248.3 "
   id="polygon7715"
   style="fill:#f2f2f2" />
				<polygon
   points="108.9,264.2 68.3,254.2 73.3,221.2 64.3,257 "
   id="polygon7717"
   style="fill:#f2f2f2" />
				<polygon
   points="132.5,239.6 128.9,264.3 176,275 125.6,266.9 "
   id="polygon7719"
   style="fill:#f2f2f2" />
				<polygon
   points="198.2,260.6 197,275.8 227.3,283.3 193.8,277.9 "
   id="polygon7721"
   style="fill:#f2f2f2" />
			</g>
		</g>
	</g>
</g>
</svg>