<?xml version="1.0" encoding="utf-8"?>
<!-- Generator: Adobe Illustrator 18.1.1, SVG Export Plug-In . SVG Version: 6.00 Build 0)  -->
<svg version="1.1" id="Warstwa_1" xmlns="http://www.w3.org/2000/svg" xmlns:xlink="http://www.w3.org/1999/xlink" x="0px" y="0px"
	 viewBox="0 0 215.5 538" enable-background="new 0 0 215.5 538" xml:space="preserve">
<g>
	<g>
		<g>
			<g>
				<polygon fill="#6C401A" points="66.6,490.9 64.2,485.5 138.4,452.7 73.2,408.7 128.3,361.3 132.2,365.8 83,408.1 150.6,453.8 
									"/>
			</g>
			<g>
				<polygon fill="#543014" points="148.9,490.9 64.9,453.8 132.5,408.1 83.3,365.8 87.2,361.3 142.3,408.7 77.1,452.7 151.3,485.5 
									"/>
			</g>
			<g>
				<g>
					<polygon fill="#603A17" points="60.4,538 110.7,222.2 104.8,221.2 54.5,538 					"/>
				</g>
				<g>
					<polygon fill="#603A17" points="161,538 110.7,221.2 104.8,222.2 155.1,538 					"/>
				</g>
				<g>
					<rect x="104.8" y="221.7" fill="#603A17" width="5.9" height="316.3"/>
				</g>
			</g>
			<g>
				<rect x="73.5" y="360.6" fill="#603A17" width="68.5" height="5.9"/>
			</g>
			<g>
				<rect x="68.6" y="405.5" fill="#603A17" width="78.3" height="5.9"/>
			</g>
			<g>
				<rect x="60.9" y="450.3" fill="#603A17" width="93.6" height="5.9"/>
			</g>
		</g>
		<rect x="101.2" y="97.5" fill="#543014" width="13.1" height="151.8"/>
		<rect x="95.9" y="240.7" fill="#7D4C28" width="23.6" height="11.8"/>
	</g>
	<g>
		<g>
			
				<rect x="106.7" y="49" transform="matrix(0.9887 0.1501 -0.1501 0.9887 17.3882 -14.9483)" fill="#603A17" width="2.1" height="117.5"/>
			<g>
				<polygon fill="#D1D2D3" points="94.3,147.5 108.8,149.7 106.7,215.5 76.8,211 				"/>
				<polygon fill="#D1D2D3" points="121.2,68 106.7,65.8 108.8,0 138.7,4.5 				"/>
			</g>
		</g>
		<g>
			
				<rect x="106.7" y="49" transform="matrix(-0.1501 0.9887 -0.9887 -0.1501 230.4504 17.3883)" fill="#603A17" width="2.1" height="117.5"/>
			<g>
				<polygon fill="#D1D2D3" points="68,94.3 65.8,108.8 0,106.7 4.5,76.8 				"/>
				<polygon fill="#D1D2D3" points="147.5,121.2 149.7,106.7 215.5,108.8 211,138.7 				"/>
			</g>
		</g>
		<g>
			
				<rect x="106.7" y="49" transform="matrix(0.593 0.8052 -0.8052 0.593 130.6164 -42.9066)" fill="#603A17" width="2.1" height="117.5"/>
			<g>
				<polygon fill="#D1D2D3" points="70.6,125.9 79.4,137.8 31.3,182.8 13.4,158.5 				"/>
				<polygon fill="#D1D2D3" points="144.9,89.6 136.1,77.7 184.2,32.7 202.1,57 				"/>
			</g>
		</g>
		<g>
			
				<rect x="106.7" y="49" transform="matrix(-0.8052 0.593 -0.593 -0.8052 258.4087 130.6165)" fill="#603A17" width="2.1" height="117.5"/>
			<g>
				<polygon fill="#D1D2D3" points="89.6,70.6 77.7,79.4 32.7,31.3 57,13.4 				"/>
				<polygon fill="#D1D2D3" points="125.9,144.9 137.8,136.1 182.8,184.2 158.5,202.1 				"/>
			</g>
		</g>
	</g>
	<circle fill="#D8B89A" cx="107.8" cy="107.8" r="13.6"/>
	<circle fill="#A5886C" cx="107.8" cy="107.8" r="9.4"/>
</g>
</svg>
